<?xml version="1.0" standalone="no"?>
<!DOCTYPE svg PUBLIC "-//W3C//DTD SVG 20010904//EN"
 "http://www.w3.org/TR/2001/REC-SVG-20010904/DTD/svg10.dtd">
<svg version="1.0" xmlns="http://www.w3.org/2000/svg"
 width="436.000000pt" height="436.000000pt" viewBox="0 0 436.000000 436.000000"
 preserveAspectRatio="xMidYMid meet">

<g transform="translate(0.000000,436.000000) scale(0.100000,-0.100000)"
fill="#000000" stroke="none">
<path d="M2438 3283 c6 -3 12 -9 12 -14 0 -4 -7 -5 -17 -2 -12 5 -14 3 -8 -8
6 -9 -1 -7 -20 5 l-30 19 18 -20 c17 -20 17 -20 -7 -16 -21 4 -28 0 -36 -21
-12 -32 -24 -35 -15 -3 7 22 7 22 -8 2 -8 -11 -13 -24 -9 -30 3 -5 -1 -4 -10
2 -8 7 -18 10 -22 6 -4 -4 -4 1 -1 12 5 17 5 17 -4 4 -6 -9 -9 -32 -8 -52 2
-20 0 -34 -5 -31 -4 3 -8 12 -8 20 0 8 -4 13 -9 10 -5 -4 -12 0 -14 6 -4 8 -6
7 -6 -4 -1 -9 4 -18 10 -20 7 -2 5 -9 -5 -17 -14 -12 -16 -12 -10 3 5 13 2 15
-12 9 -17 -6 -17 -5 -5 11 11 13 12 19 2 29 -10 9 -11 8 -6 -4 7 -19 -21 -34
-31 -17 -4 6 -3 8 3 5 5 -3 10 0 10 8 0 13 -4 12 -19 -2 -20 -18 -25 -5 -5 17
10 12 9 12 -4 2 -11 -8 -19 -8 -26 -1 -8 8 -14 5 -23 -11 -6 -12 -18 -19 -25
-16 -11 4 -12 0 -5 -19 7 -18 6 -24 -3 -22 -7 1 -11 -6 -10 -17 1 -13 -2 -15
-10 -7 -8 8 -8 14 1 23 7 7 12 17 12 22 0 6 -7 0 -16 -12 -9 -13 -13 -31 -10
-40 5 -13 2 -12 -10 3 -16 20 -16 20 -11 -2 6 -26 -26 -62 -39 -42 -5 8 -3 10
6 4 9 -6 11 -4 6 4 -6 9 -13 8 -27 -5 -15 -14 -17 -20 -6 -32 7 -10 8 -13 1
-9 -13 8 -27 -19 -18 -34 3 -5 0 -9 -6 -9 -6 0 -15 -10 -20 -22 -5 -13 -9 -17
-9 -10 -1 7 -5 11 -11 7 -5 -3 -7 -12 -4 -19 3 -8 1 -17 -5 -21 -7 -4 -8 1 -4
12 5 15 2 14 -16 -4 -11 -12 -22 -34 -23 -49 -2 -14 -11 -30 -21 -36 -13 -7
-17 -7 -13 0 4 6 -2 15 -11 21 -14 8 -15 11 -3 11 12 0 11 3 -2 11 -10 5 -18
17 -18 26 0 9 -3 13 -6 10 -4 -4 -8 -34 -10 -68 -3 -47 -9 -68 -25 -86 -13
-12 -18 -23 -13 -23 5 0 5 -4 -1 -8 -19 -14 -50 -56 -35 -47 13 8 13 6 1 -8
-7 -9 -17 -14 -22 -11 -5 3 -9 -1 -9 -8 0 -7 -12 -24 -25 -37 -18 -17 -22 -27
-15 -36 5 -6 6 -15 2 -19 -4 -4 -7 -31 -8 -60 0 -29 -3 -57 -6 -62 -6 -11 -5
-135 2 -149 3 -5 5 -54 5 -107 0 -54 2 -98 5 -98 3 0 7 -16 8 -35 2 -20 7 -47
12 -61 6 -14 8 -29 5 -34 -5 -9 15 -27 30 -25 6 0 16 4 24 9 10 6 12 5 7 -2
-6 -11 5 -16 26 -13 4 0 5 -8 3 -19 -3 -13 0 -18 7 -14 8 5 9 1 5 -10 -4 -10
-3 -15 4 -11 5 4 16 1 24 -5 8 -7 15 -11 16 -9 1 2 3 29 5 59 2 30 8 58 13 63
5 5 6 -2 4 -16 -3 -14 0 -28 6 -31 16 -10 13 -37 -6 -60 -15 -18 -14 -18 8 2
l26 22 13 -25 c11 -21 11 -27 -3 -43 -10 -10 -17 -24 -17 -31 0 -7 -4 -9 -10
-6 -5 3 -10 15 -10 26 0 11 4 18 9 15 12 -8 34 21 26 34 -10 16 -33 -6 -45
-44 -9 -29 -10 -29 -6 -3 2 15 -1 30 -5 33 -5 3 -9 0 -9 -7 0 -7 -7 -4 -16 7
-13 16 -13 14 1 -9 9 -16 14 -35 11 -42 -3 -8 2 -12 12 -10 26 4 34 -5 20 -23
-9 -12 -6 -11 10 2 12 11 22 26 22 35 0 14 2 14 10 1 6 -10 3 -22 -13 -39 -12
-13 -16 -21 -8 -16 11 6 13 4 8 -9 -4 -11 -3 -15 4 -11 5 4 8 12 6 18 -2 7 7
25 20 40 13 16 20 34 16 40 -11 18 -12 38 -1 31 5 -3 7 -8 4 -11 -3 -3 6 -17
20 -31 13 -15 24 -31 24 -36 0 -6 -7 -1 -16 10 -14 18 -15 18 -4 -4 9 -18 14
-20 30 -12 22 12 28 25 8 15 -7 -4 -6 -1 3 7 16 13 19 19 19 38 0 6 5 10 11
10 5 0 7 -6 3 -12 -4 -8 -3 -10 2 -5 5 5 9 14 9 20 1 7 6 11 13 10 6 -2 9 4 6
11 -7 19 27 38 46 26 9 -5 19 -5 27 1 9 8 11 6 8 -10 -2 -12 0 -19 4 -17 4 3
23 -11 42 -32 l34 -37 -35 30 -35 30 34 -37 c29 -32 51 -41 51 -22 0 3 -5 2
-12 -2 -7 -4 -8 -3 -4 5 4 6 12 9 17 5 5 -3 6 -10 3 -16 -5 -7 -1 -9 9 -5 12
4 14 2 10 -11 -3 -9 -3 -14 1 -10 4 3 22 -10 40 -30 25 -26 35 -32 41 -22 6 9
4 11 -5 5 -9 -5 -11 -4 -6 3 5 8 13 9 24 3 9 -5 22 -9 27 -10 6 0 11 -13 13
-27 3 -21 6 -24 13 -13 7 12 9 12 9 -2 0 -8 -5 -20 -12 -27 -17 -17 -20 -46
-3 -32 10 8 15 8 21 -1 4 -8 3 -9 -4 -5 -16 10 -15 -7 1 -23 7 -9 7 -11 1 -8
-11 7 -24 -11 -30 -41 -4 -22 -11 -24 -18 -7 -3 10 -2 13 4 10 6 -4 9 -3 8 2
-1 4 3 19 10 33 12 22 11 23 -1 8 -8 -10 -17 -14 -21 -10 -4 4 -6 0 -4 -8 2
-8 -3 -14 -10 -12 -8 1 -11 -2 -8 -7 3 -5 -3 -20 -13 -33 -11 -13 -22 -41 -26
-61 -4 -20 -11 -34 -16 -31 -5 3 -6 -3 -2 -12 4 -12 3 -15 -5 -10 -8 5 -10 2
-6 -8 3 -9 11 -13 18 -9 6 3 3 -2 -6 -13 -17 -19 -17 -21 0 -39 17 -19 17 -19
-5 -1 -17 14 -20 22 -12 32 7 9 6 14 -2 20 -7 4 -9 3 -6 -3 4 -6 0 -16 -8 -23
-8 -7 -15 -18 -15 -24 0 -7 4 -6 9 2 6 11 10 10 15 -4 4 -10 4 -15 0 -11 -4 4
-13 -1 -21 -11 -11 -15 -12 -15 -7 -1 3 10 0 20 -6 24 -6 3 -9 3 -8 -2 2 -4
-1 -10 -7 -13 -5 -3 -9 9 -9 28 1 28 -1 31 -14 20 -14 -11 -15 -10 -9 7 l7 20
-15 -20 c-9 -11 -22 -27 -29 -37 -8 -9 -11 -20 -8 -24 4 -4 1 -4 -6 0 -7 4
-10 11 -7 16 3 5 1 11 -5 15 -6 4 -7 11 -4 17 4 7 2 8 -4 4 -6 -4 -8 -14 -5
-24 10 -28 -32 29 -56 77 -13 25 -17 40 -9 35 10 -6 11 -5 1 8 -7 8 -9 19 -5
23 4 5 2 5 -4 2 -7 -4 -14 -1 -17 7 -7 19 -67 39 -67 23 0 -9 -2 -9 -8 0 -4 7
-7 -6 -7 -30 1 -24 5 -49 10 -56 5 -9 4 -12 -3 -7 -6 3 -14 1 -18 -5 -5 -8 -3
-9 6 -4 10 6 12 4 6 -10 -7 -18 -6 -18 16 0 13 11 20 16 15 11 -4 -5 1 -19 10
-30 10 -12 14 -18 9 -14 -5 4 -16 2 -25 -5 -14 -10 -14 -10 -3 5 7 9 9 19 4
22 -5 3 -14 -6 -21 -20 -8 -19 -8 -24 1 -18 8 5 9 2 4 -11 -6 -18 -6 -18 15 1
l23 19 -16 -24 c-13 -18 -14 -30 -7 -50 6 -14 9 -26 8 -26 -1 0 1 -10 5 -23 4
-13 12 -19 18 -15 7 3 4 -4 -5 -17 -13 -18 -14 -28 -5 -44 12 -22 12 -24 -4
-44 -14 -17 -61 26 -90 82 -11 22 -26 45 -33 52 -17 18 -47 144 -43 184 2 19
11 38 22 44 27 16 66 52 66 61 0 4 -6 2 -14 -4 -8 -7 -17 -8 -20 -3 -3 6 0 15
7 21 17 13 15 133 -2 139 -6 2 -8 9 -4 15 4 8 1 7 -9 -1 -11 -8 -15 -23 -11
-42 2 -18 0 -30 -7 -30 -6 0 -8 5 -5 10 9 15 -1 12 -14 -4 -9 -11 -9 -16 0
-22 8 -5 9 -3 4 6 -5 9 -4 11 4 6 16 -11 3 -26 -16 -19 -11 4 -14 2 -9 -5 4
-7 0 -10 -13 -7 -15 3 -18 -1 -13 -18 5 -20 4 -21 -13 -7 -10 8 -16 10 -12 4
4 -7 0 -15 -9 -18 -10 -4 -13 -2 -9 7 4 6 0 4 -8 -6 -8 -10 -19 -17 -23 -16
-17 2 -54 -13 -54 -23 0 -5 -8 -8 -17 -7 -10 1 -21 0 -25 -1 -5 -1 -11 -3 -15
-4 -5 -1 -14 -5 -21 -10 -7 -4 -28 -10 -45 -13 -18 -3 -45 -11 -62 -18 -42
-19 -85 -27 -85 -17 0 5 9 17 20 27 11 10 20 23 20 28 0 6 -11 0 -26 -13 -18
-18 -23 -31 -19 -47 3 -13 1 -23 -5 -23 -6 0 -8 -5 -4 -11 5 -8 1 -8 -13 0
-11 6 -23 8 -25 5 -3 -3 -5 5 -4 18 1 24 -19 32 -40 16 -7 -5 -14 -3 -18 7 -3
8 -10 15 -16 15 -6 0 -4 -8 6 -17 11 -11 13 -18 5 -21 -6 -2 -11 -8 -11 -13 0
-6 5 -7 10 -4 6 3 10 2 10 -3 0 -12 -132 -134 -138 -127 -3 3 -20 -6 -38 -20
-34 -26 -54 -32 -54 -15 0 5 8 7 18 3 14 -5 13 -3 -3 10 -20 16 -20 16 2 12
16 -3 30 5 48 26 23 28 30 29 25 4 -1 -5 8 -1 19 9 12 11 21 24 20 30 0 6 -3
6 -6 -2 -2 -6 -8 -10 -13 -7 -10 6 5 65 21 79 9 8 10 7 6 -4 -17 -48 -18 -55
-5 -32 8 12 18 19 22 15 5 -4 3 2 -3 15 -11 20 -15 21 -29 10 -13 -11 -15 -11
-10 4 5 11 2 15 -10 13 -9 -1 -21 0 -27 4 -5 3 -16 6 -23 7 -10 2 -10 -1 -2
-11 7 -8 7 -15 1 -19 -5 -4 -13 -2 -16 4 -4 7 -11 8 -18 1 -7 -5 -15 -10 -19
-10 -5 -1 -8 -3 -8 -6 0 -27 1 -29 10 -15 9 13 14 7 11 -12 -2 -17 19 -7 29
13 7 11 14 18 17 15 3 -3 -3 -18 -13 -33 -10 -15 -20 -37 -21 -47 -5 -30 -21
-43 -50 -41 -22 1 -27 6 -25 21 2 10 2 17 0 14 -2 -3 -10 -14 -18 -24 -8 -11
-10 -17 -3 -13 16 10 36 -26 22 -40 -8 -8 -7 -13 0 -18 6 -3 10 -1 9 5 -4 18
29 21 43 4 9 -11 8 -14 -3 -14 -8 0 -27 -11 -42 -25 -15 -14 -31 -25 -37 -25
-11 0 -44 -28 -104 -88 -30 -29 -46 -39 -51 -31 -5 8 -3 9 6 4 9 -6 11 -4 5 5
-4 7 -2 16 6 21 10 6 11 9 2 9 -7 0 -13 5 -13 11 0 5 4 8 9 4 6 -3 15 4 21 16
9 15 9 19 1 15 -13 -8 -10 21 3 44 5 8 6 12 1 8 -4 -4 -13 -3 -20 2 -8 7 -21
0 -41 -22 -16 -18 -21 -26 -12 -19 15 11 19 11 24 -2 7 -18 -4 -40 -16 -32 -4
3 -14 -3 -21 -13 -13 -15 -12 -16 3 -3 20 15 25 2 6 -17 -9 -9 -7 -11 10 -7
17 3 20 -1 17 -23 -1 -15 -4 -28 -5 -29 -1 -2 -3 -7 -4 -12 0 -5 -4 -13 -8
-17 -13 -13 -9 21 5 35 10 11 9 12 -2 6 -11 -6 -13 -4 -8 9 4 9 3 15 -2 11 -6
-3 -10 -13 -11 -23 -2 -51 -6 -70 -11 -69 -4 1 -15 -7 -25 -18 -11 -12 -15
-15 -11 -9 5 7 3 22 -3 35 -7 12 -8 19 -3 16 4 -3 9 6 10 20 0 16 -2 21 -7 14
-10 -16 -21 -16 -31 1 -7 10 -9 10 -9 0 0 -7 -5 -10 -10 -7 -8 5 -7 11 1 21 6
7 15 11 20 8 5 -3 6 3 2 12 -4 12 -3 15 5 10 18 -11 14 0 -5 15 -10 7 -15 10
-11 5 9 -11 -10 -48 -22 -41 -4 3 -7 -3 -6 -12 4 -27 -23 -62 -44 -58 -10 2
-24 -3 -30 -11 -7 -7 -16 -11 -21 -8 -5 3 -14 -8 -20 -25 -6 -17 -15 -28 -20
-25 -6 3 -5 11 2 20 6 8 9 17 5 21 -3 3 -6 1 -6 -7 0 -9 -3 -10 -14 -1 -10 9
-17 7 -27 -6 -13 -16 -12 -17 3 -5 9 8 19 9 22 4 7 -11 -18 -35 -27 -26 -4 4
-5 -3 -2 -14 2 -12 -4 -31 -14 -44 -10 -13 -17 -30 -16 -39 2 -9 -3 -16 -11
-16 -7 0 -11 4 -8 9 4 5 -3 4 -14 -3 -12 -7 -19 -16 -17 -20 3 -3 -8 -17 -23
-30 l-27 -24 21 25 c12 14 19 31 17 38 -3 8 -12 4 -25 -13 -15 -19 -23 -23
-32 -15 -7 5 -16 6 -21 2 -4 -4 -4 4 0 17 5 16 4 21 -4 17 -6 -4 -11 0 -12 11
0 12 -4 9 -11 -9 -9 -27 -30 -40 -24 -15 1 6 1 9 -1 5 -11 -20 -23 -6 -13 15
11 21 10 21 -4 3 -9 -11 -16 -16 -16 -12 0 5 -7 3 -15 -4 -14 -12 -20 -7 -16
14 1 5 -6 3 -15 -5 -16 -12 -17 -12 -11 4 9 23 0 22 -13 -3 -6 -11 -7 -20 -3
-19 4 1 11 0 16 -1 4 -1 12 -3 17 -4 15 -2 12 -21 -2 -22 -7 0 -19 4 -26 10
-7 5 -12 5 -10 0 2 -5 -1 -9 -7 -9 -5 0 -9 3 -8 6 1 3 -10 5 -25 4 -15 -1 -30
3 -33 8 -3 5 -9 2 -12 -6 -4 -10 1 -14 16 -13 14 1 21 -4 19 -13 -3 -12 0 -12
12 -2 14 12 27 3 32 -24 1 -5 6 -19 10 -30 7 -18 6 -19 -10 -5 -10 8 -24 15
-30 16 -13 2 -14 -3 -17 -51 -1 -13 -7 -23 -13 -22 -13 2 -17 -46 -4 -65 5 -8
6 3 3 27 -4 26 -3 35 3 26 5 -7 12 -9 14 -5 3 5 3 3 1 -4 -2 -8 0 -18 3 -24
12 -18 23 15 12 35 -8 15 -7 18 4 12 7 -3 5 0 -5 8 -20 16 -12 26 16 22 9 -2
15 1 12 6 -4 5 0 6 7 4 16 -6 41 52 27 61 -5 3 -6 10 -2 17 4 7 9 4 14 -9 6
-15 8 -15 8 -3 1 9 8 22 16 29 18 15 20 -1 3 -18 -9 -9 -9 -15 1 -24 8 -8 11
-8 8 -2 -4 7 0 17 8 24 12 10 13 16 3 28 -11 13 -9 13 12 -1 23 -16 25 -16 38
6 13 21 13 21 7 -8 -3 -16 -2 -25 2 -20 13 17 28 15 40 -5 10 -15 9 -18 -5
-15 -18 3 -52 -22 -52 -38 0 -6 8 -3 18 6 15 14 19 14 19 3 0 -8 -5 -14 -11
-13 -5 1 -11 -4 -12 -10 -1 -7 -3 -16 -4 -20 -1 -5 -2 -11 -2 -14 1 -3 -6 -6
-14 -6 -12 0 -12 3 2 18 11 12 12 19 4 24 -6 4 -9 13 -6 20 11 29 -9 23 -31
-10 -13 -19 -29 -34 -36 -32 -7 1 -11 -4 -9 -11 1 -8 -2 -11 -7 -8 -10 7 -3
43 10 52 5 3 9 -3 9 -12 0 -13 3 -15 10 -8 14 14 3 41 -15 41 -8 0 -19 -13
-24 -29 -9 -25 -20 -33 -43 -29 -10 1 -10 -13 -1 -22 3 -4 12 -2 20 5 11 9 13
8 11 -3 -2 -8 3 -13 10 -11 8 1 11 -2 7 -8 -5 -8 -12 -7 -23 2 -13 11 -15 10
-9 -4 4 -11 2 -17 -5 -15 -6 1 -13 -4 -16 -12 -3 -9 0 -11 8 -6 8 5 11 4 6 -3
-3 -6 -16 -9 -27 -7 -13 3 -19 0 -16 -8 3 -7 10 -11 16 -9 9 2 9 -3 1 -18 -6
-11 -13 -20 -16 -20 -3 0 -2 5 1 10 3 6 3 15 -1 21 -4 8 -9 7 -15 -2 -7 -11
-9 -11 -9 -1 0 7 -3 11 -7 9 -13 -8 -15 74 -3 89 8 8 8 19 2 30 -6 11 -11 13
-16 5 -4 -6 -2 -11 3 -11 6 0 11 -5 11 -11 0 -5 -4 -8 -9 -5 -5 3 -9 -134 -10
-319 l-2 -325 853 2 853 3 -2 63 c-1 35 -6 69 -13 77 -6 7 -15 26 -20 42 l-8
28 -2 -30 c-1 -26 -3 -27 -10 -10 -5 11 -9 14 -11 8 -1 -7 -3 -17 -4 -23 -1
-5 -3 -13 -4 -16 0 -4 -8 -1 -16 6 -8 7 -13 15 -11 19 2 3 0 15 -5 26 -7 17
-8 15 -7 -10 1 -16 -9 -47 -21 -67 -24 -40 -35 -49 -24 -21 5 11 3 14 -6 8
-10 -6 -11 -3 -1 14 6 12 15 19 19 16 5 -2 14 2 21 10 10 12 8 16 -11 24 -13
5 -27 7 -31 4 -4 -2 -5 4 -1 13 3 10 2 15 -3 12 -5 -4 -9 10 -10 30 0 21 -3
69 -6 108 -7 84 1 107 26 70 9 -14 30 -33 46 -41 25 -13 30 -22 31 -53 l2 -37
6 35 7 35 8 -50 c12 -80 14 -83 16 -25 2 30 5 45 7 33 2 -13 9 -23 14 -23 6 0
7 5 3 12 -4 7 -3 8 4 4 7 -4 13 -24 13 -44 l2 -37 6 38 c6 37 7 37 29 22 21
-15 22 -23 22 -146 0 -79 4 -129 10 -129 6 0 10 3 11 8 0 4 3 41 5 82 3 41 6
80 6 86 1 6 7 11 15 11 7 0 11 -3 8 -5 -3 -3 -1 -10 4 -16 17 -20 18 -121 1
-111 -6 3 -7 -1 -4 -10 4 -9 -1 -22 -12 -31 -18 -13 -16 -14 16 -12 34 3 35 5
40 48 6 57 25 54 25 -4 l-1 -45 93 2 c51 1 93 6 93 10 0 4 8 4 18 -1 9 -5 47
-10 84 -11 56 -1 67 1 72 16 5 15 16 18 70 16 51 -1 64 1 60 12 -6 16 12 29
21 15 3 -5 16 -8 29 -4 15 3 28 -2 41 -18 l20 -23 -25 20 c-23 18 -24 18 -8 0
21 -23 36 -26 166 -32 l103 -4 -14 33 c-8 18 -12 39 -9 46 4 14 -26 54 -37 48
-3 -2 -5 18 -4 45 2 49 2 49 -16 27 l-18 -22 -6 45 c-5 36 -10 186 -8 223 1 6
6 5 13 -2 7 -7 11 -30 10 -52 -3 -42 4 -49 27 -27 11 10 12 9 6 -2 -5 -9 -4
-12 3 -7 7 4 8 15 2 30 -5 13 -7 26 -4 29 8 8 -47 47 -57 41 -5 -3 -9 2 -9 11
0 10 5 13 12 9 7 -4 8 -3 4 4 -4 6 -12 9 -20 6 -7 -3 -13 2 -13 10 0 11 6 12
25 5 14 -5 30 -13 36 -17 6 -4 13 -7 16 -7 20 -2 123 -81 152 -116 43 -55 78
-112 78 -130 0 -7 10 -32 21 -56 12 -25 24 -73 27 -109 l5 -64 708 0 709 1 -2
67 c-1 47 -6 70 -17 79 -19 14 -55 -2 -45 -20 4 -7 3 -8 -2 -4 -5 5 -9 14 -9
20 -1 7 -7 11 -15 9 -11 -3 -11 0 0 12 13 17 25 22 16 7 -7 -11 21 -8 31 4 4
4 3 5 -3 2 -13 -7 -37 16 -29 27 3 3 -1 2 -7 -4 -15 -13 -51 -13 -43 0 3 6 -1
7 -9 4 -9 -3 -16 -1 -16 5 0 6 5 12 10 12 6 1 16 2 23 3 6 1 15 -3 20 -9 4 -5
5 1 3 15 -2 14 -9 24 -15 23 -6 -2 -11 4 -11 13 0 22 -23 12 -37 -17 -8 -15
-13 -18 -13 -8 0 8 5 20 12 27 7 7 9 12 5 12 -4 0 -3 9 3 21 11 19 10 20 -9 9
-16 -8 -21 -8 -21 1 0 6 -7 9 -14 6 -10 -4 -13 -1 -9 9 4 11 8 12 19 3 8 -7
17 -9 21 -5 3 3 1 6 -6 6 -7 0 -9 5 -4 13 14 22 11 36 -7 32 -10 -2 -24 3 -31
11 -11 14 -10 15 11 18 6 0 10 4 10 9 0 4 0 10 0 14 0 3 -11 -4 -25 -17 -22
-21 -26 -48 -5 -35 5 3 7 -4 5 -15 -3 -14 0 -18 8 -14 7 4 4 -1 -5 -12 -12
-14 -14 -24 -8 -30 7 -7 6 -11 -4 -11 -8 0 -14 3 -13 6 1 3 -2 6 -8 6 -5 0 -9
-4 -7 -8 1 -5 -2 -6 -8 -2 -8 5 -8 11 -1 19 15 18 1 28 -17 13 -13 -10 -14 -9
-2 10 12 19 15 19 25 6 10 -13 12 -13 24 0 8 10 9 17 1 22 -5 3 -10 0 -10 -7
0 -8 -5 -6 -11 5 -6 9 -15 14 -21 11 -7 -4 -8 -2 -4 5 4 6 11 9 16 6 9 -5 33
30 35 50 1 6 7 9 14 7 7 -1 10 2 6 8 -5 8 -11 7 -21 -1 -11 -9 -14 -8 -14 2 0
7 -8 2 -17 -11 -10 -14 -18 -29 -18 -35 0 -5 -7 -10 -15 -10 -8 -1 -14 -7 -12
-14 1 -7 -2 -10 -8 -6 -8 5 -8 11 0 20 6 7 7 16 2 19 -5 3 -8 14 -7 25 2 30
12 36 11 6 0 -13 3 -26 9 -27 5 -2 10 16 11 39 0 23 -3 40 -7 37 -5 -3 -9 -1
-9 5 0 5 8 15 18 20 9 6 11 11 5 11 -21 0 -27 -4 -30 -19 -1 -8 -7 -17 -13
-21 -7 -4 -11 -10 -10 -14 1 -4 0 -10 -3 -14 -2 -4 -2 -2 -1 5 2 7 -1 15 -6
18 -8 5 -14 -13 -12 -36 1 -3 -5 -6 -12 -6 -7 0 -13 6 -13 13 0 7 3 11 6 9 4
-2 11 8 18 21 7 14 7 21 1 18 -6 -4 -8 2 -4 17 7 23 6 23 -6 4 -7 -11 -13 -23
-13 -27 0 -5 -3 -8 -7 -8 -5 0 -10 0 -13 0 -3 0 2 12 12 28 l17 27 -22 -19
c-28 -24 -59 -32 -41 -10 6 7 15 11 20 9 4 -3 15 8 24 25 14 28 13 35 -9 31
-5 -1 -6 5 -3 13 4 9 0 13 -11 12 -9 -2 -19 -11 -21 -21 -2 -13 1 -16 13 -12
20 8 32 -11 17 -26 -9 -9 -11 -8 -6 5 5 11 1 16 -12 15 -10 -1 -21 -6 -24 -10
-3 -5 -9 -1 -12 8 -4 9 -3 13 3 10 6 -3 10 2 10 12 0 11 6 25 13 33 10 12 9
12 -5 1 -20 -15 -22 -12 -9 22 7 17 6 24 -4 24 -7 0 -10 -8 -8 -18 3 -9 -1
-20 -8 -25 -9 -5 -11 -2 -6 8 7 20 -17 56 -27 40 -16 -26 -25 -10 -10 16 12
20 12 22 1 9 -8 -10 -18 -14 -21 -9 -3 5 3 17 13 26 15 14 20 14 29 3 7 -8 9
-17 5 -20 -3 -4 -4 -7 -1 -7 3 0 12 8 19 17 8 9 9 14 3 10 -7 -4 -17 0 -24 8
-7 8 -16 12 -21 9 -12 -7 -11 10 1 22 8 8 6 15 -4 23 -12 10 -18 8 -31 -13
-18 -27 -35 -26 -35 2 0 13 2 14 9 4 7 -11 9 -11 14 1 4 11 0 15 -14 12 -17
-4 -23 4 -16 23 1 4 6 6 10 4 5 -1 6 2 2 8 -5 8 -11 8 -19 1 -7 -6 -16 -7 -20
-3 -4 4 -6 2 -4 -4 1 -6 -12 -27 -30 -48 -18 -21 -32 -32 -31 -25 1 8 -1 22
-5 31 -6 13 -13 15 -31 8 -20 -8 -23 -6 -18 7 5 12 3 14 -7 8 -8 -5 -11 -4 -7
2 4 6 1 13 -6 16 -7 3 -19 23 -27 46 -7 22 -16 38 -21 36 -4 -3 -6 3 -4 12 2
10 4 24 4 31 1 7 6 10 11 7 8 -5 7 -12 -2 -23 -11 -15 -11 -15 4 -4 10 8 19 9
22 3 3 -5 0 -12 -6 -14 -10 -4 -9 -6 1 -6 11 -1 11 -4 0 -19 -12 -15 -12 -16
2 -4 21 16 37 -2 33 -40 -3 -28 18 -54 36 -43 6 3 8 10 5 15 -3 5 0 12 6 16 9
5 10 0 7 -14 -8 -31 0 -27 12 4 8 20 13 24 23 15 10 -8 14 -7 14 4 0 7 -5 13
-11 12 -6 -1 -9 5 -8 13 2 8 0 11 -5 7 -4 -5 -8 -13 -8 -19 0 -14 -33 -19 -41
-7 -3 5 -10 7 -15 4 -5 -4 -9 -1 -9 4 0 6 5 11 11 11 7 0 0 9 -14 20 -17 14
-24 28 -22 42 3 11 2 18 -2 14 -3 -3 -13 0 -21 6 -22 19 -41 18 -36 0 3 -10
-4 0 -16 21 -12 22 -19 45 -16 53 3 8 0 13 -7 11 -7 -1 -11 6 -10 16 0 10 -2
16 -5 13 -3 -4 -16 3 -28 15 -16 15 -24 17 -29 8 -6 -8 -4 -10 5 -4 9 5 11 4
6 -4 -10 -16 -29 -2 -21 16 5 14 3 14 -12 2 -15 -12 -16 -12 -10 3 3 10 1 20
-5 24 -6 4 -8 3 -4 -4 3 -6 2 -13 -4 -17 -5 -3 -10 1 -10 9 0 9 -13 22 -29 30
-16 9 -44 28 -62 43 -19 15 -28 20 -20 10 12 -15 12 -17 -3 -11 -9 3 -16 10
-16 16 0 5 -4 6 -10 3 -5 -3 -10 -1 -10 5 0 6 -3 9 -7 7 -11 -7 -33 19 -25 27
3 4 -1 4 -11 0 -10 -3 -17 -1 -17 6 0 6 -4 8 -10 5 -5 -3 -10 0 -10 7 0 9 -3
9 -10 -2 -8 -13 -10 -12 -10 4 0 11 -3 16 -6 13 -4 -4 -14 2 -23 12 -26 30
-93 57 -138 56 -23 0 -39 3 -37 7 3 4 0 8 -6 8 -6 0 -8 5 -4 12 4 7 3 8 -4 4
-6 -4 -9 -14 -6 -24 4 -12 0 -10 -13 6 -15 18 -21 20 -32 10 -12 -11 -13 -10
-7 7 4 11 4 16 0 12 -4 -4 -14 -1 -22 5 -19 16 -40 19 -49 6 -4 -7 -1 -8 6 -3
10 6 11 3 2 -14 -13 -24 -23 -29 -15 -7 3 8 0 17 -7 22 -8 4 -10 3 -5 -4 4 -7
3 -12 -2 -12 -5 0 -12 9 -15 20 -3 13 -1 18 6 13 8 -4 8 -2 0 9 -7 8 -10 17
-8 20 10 10 11 77 1 71 -5 -4 -7 1 -3 10 3 10 2 17 -4 17 -6 0 -6 6 -1 18 11
19 5 45 -8 37 -10 -6 -4 35 6 44 4 3 4 -3 1 -14 -6 -18 -5 -17 9 3 9 12 23 22
30 22 8 0 14 8 14 18 0 13 2 14 9 3 6 -9 11 -10 15 -2 4 6 12 8 18 5 6 -4 8
-2 4 4 -10 16 55 63 71 51 6 -6 9 -18 6 -26 -5 -12 -3 -14 8 -8 12 7 12 6 1
-8 -12 -14 -10 -19 13 -38 14 -13 23 -29 21 -35 -3 -7 0 -15 7 -18 9 -3 9 -5
0 -5 -7 -1 -13 -6 -13 -11 0 -6 5 -9 11 -8 7 2 15 -10 20 -26 4 -16 4 -25 0
-20 -5 5 -11 18 -14 29 -3 11 -4 -2 -1 -28 2 -31 0 -46 -6 -42 -6 4 -9 3 -8
-2 1 -4 -3 -17 -9 -29 -12 -21 -12 -50 0 -59 4 -3 5 -2 2 1 -2 4 9 26 26 50
17 24 27 49 24 54 -4 6 -1 9 7 8 7 -2 12 4 10 14 -1 9 2 19 8 23 6 4 7 -1 3
-11 -4 -11 -3 -15 5 -10 6 3 14 1 18 -5 4 -8 3 -9 -4 -5 -8 4 -10 2 -6 -7 7
-18 37 -15 42 4 3 11 1 11 -7 -1 -6 -8 -11 -10 -11 -4 0 6 6 16 13 23 16 13
37 -4 37 -30 0 -19 24 -42 33 -32 4 3 7 0 7 -8 1 -10 4 -9 11 4 9 15 13 16 27
5 9 -7 13 -8 9 -2 -4 7 0 17 8 24 8 7 15 17 15 23 0 6 -7 2 -16 -9 -15 -19
-15 -18 -5 2 5 11 18 27 28 35 16 12 17 12 6 -2 -10 -13 -10 -19 3 -35 8 -10
12 -13 9 -6 -4 8 -2 25 5 38 12 22 14 22 26 6 11 -16 13 -15 23 11 13 33 21
36 14 5 -4 -20 -3 -20 6 -6 14 21 45 16 48 -8 3 -18 2 -18 -6 1 -7 16 -9 12
-8 -16 2 -36 17 -45 17 -11 1 16 1 15 11 -1 5 -9 7 -23 3 -30 -4 -6 5 1 20 17
31 33 49 27 20 -6 -17 -20 -17 -21 -1 -9 10 8 22 22 28 32 8 15 5 17 -16 13
-15 -3 -25 0 -25 7 0 8 -4 8 -15 -1 -10 -9 -15 -9 -15 -1 0 10 14 15 34 12 5
-1 6 4 3 12 -3 7 1 14 8 14 8 0 14 -3 13 -6 -3 -29 12 -35 41 -17 9 6 8 0 -4
-17 -13 -20 -13 -27 -3 -33 7 -4 10 -3 5 1 -4 5 0 19 8 31 8 13 12 31 9 41 -5
14 -4 15 4 4 11 -15 32 -7 32 12 0 7 -4 6 -10 -3 -7 -12 -9 -11 -8 6 1 12 9
21 18 20 8 -1 14 5 12 12 -1 8 2 11 7 8 6 -4 4 -20 -5 -42 -8 -20 -10 -33 -5
-29 6 3 11 12 11 19 0 20 47 59 55 47 3 -7 3 -10 -2 -9 -4 2 -10 -1 -11 -7 -2
-5 -9 -16 -15 -24 -14 -16 -18 -43 -6 -35 5 3 7 9 4 13 -2 5 6 18 20 31 14 13
21 28 18 38 -4 10 -2 13 5 8 8 -5 10 -2 5 9 -3 10 -1 20 6 24 6 4 14 30 17 57
3 27 7 63 10 79 3 17 7 42 8 57 1 15 6 31 11 35 4 5 5 3 1 -4 -3 -6 -2 -14 3
-17 10 -7 9 13 -2 31 -4 6 -2 15 4 19 8 5 9 3 4 -6 -5 -9 -4 -11 3 -6 8 4 8
15 2 31 -6 16 -6 25 1 25 6 0 6 7 2 18 -12 25 -9 57 5 55 6 -2 9 4 5 13 -5 13
-7 13 -14 2 -5 -8 -8 -5 -7 12 1 14 6 31 12 39 8 11 8 13 0 8 -7 -4 -14 3 -17
20 -6 33 1 55 16 46 6 -4 7 -1 1 8 -5 8 -10 32 -10 54 -1 22 -3 40 -4 40 -1 0
-3 12 -4 28 -2 15 -11 36 -20 46 -13 14 -14 21 -5 27 8 5 10 3 4 -6 -5 -9 -4
-11 4 -6 6 4 9 12 5 17 -3 5 -10 7 -15 3 -6 -3 -8 5 -5 20 3 17 1 24 -6 20 -7
-5 -9 2 -6 20 4 20 2 24 -7 16 -10 -8 -15 -7 -21 1 -4 8 -3 9 4 5 8 -5 11 1
10 18 -1 13 -7 22 -12 19 -5 -4 -7 1 -2 12 5 15 4 16 -9 5 -13 -11 -14 -10 -9
5 6 14 4 16 -7 10 -11 -7 -11 -5 1 10 8 10 10 16 4 12 -7 -4 -15 0 -18 9 -4
10 -2 13 7 7 6 -4 4 4 -6 17 -19 27 -40 69 -42 85 0 6 -6 9 -11 8 -6 -1 -11 4
-11 12 0 8 4 12 10 8 22 -13 -72 117 -120 167 -29 31 -53 59 -53 64 0 4 8 -2
18 -15 15 -17 21 -19 27 -9 5 8 4 11 -3 6 -6 -3 -16 3 -22 14 -9 17 -14 19
-26 9 -12 -10 -13 -9 -9 4 4 8 1 18 -6 23 -8 5 -10 3 -4 -5 4 -7 -4 -5 -19 4
-14 10 -26 21 -26 26 0 5 -6 9 -14 9 -14 0 -31 28 -27 45 1 5 -6 2 -16 -7 -13
-12 -23 -14 -36 -7 -9 6 -17 7 -17 3 0 -3 -7 -1 -15 6 -8 7 -15 9 -15 5 0 -4
-6 -2 -13 4 -8 6 -17 8 -20 4 -4 -3 -8 -1 -8 5 -4 32 -6 37 -17 34 -7 -1 -12
3 -12 10 0 6 -3 8 -7 5 -3 -4 2 -16 12 -27 22 -24 8 -26 -24 -3 -18 12 -22 13
-16 2 7 -12 6 -12 -7 -1 -13 10 -18 10 -24 1 -5 -9 -11 -7 -21 6 -7 11 -13 14
-13 9 0 -5 -9 -10 -20 -11 -13 -1 -18 2 -13 10 5 8 2 8 -9 -1 -12 -10 -18 -9
-28 3 -13 15 -35 11 -25 -6 10 -15 -7 -10 -29 9 -20 16 -20 16 -7 0 8 -11 9
-18 3 -18 -6 0 -14 5 -18 11 -4 8 -9 7 -14 -2 -7 -10 -12 -10 -23 -1 -7 7 -17
9 -20 5 -4 -3 -13 -1 -20 5 -8 7 -17 8 -22 4 -4 -4 -6 0 -3 8 3 9 -11 26 -36
44 -23 16 -45 34 -49 40 -4 6 -6 0 -4 -14 2 -14 2 -19 0 -12 -3 7 -8 10 -13 7
-16 -10 -22 16 -8 33 11 15 11 15 -2 5 -12 -9 -20 -7 -37 7 -12 9 -19 20 -16
24 4 3 0 6 -8 7 -33 2 -53 8 -60 21 -7 10 -9 10 -9 1 0 -7 -5 -13 -11 -13 -5
0 -8 4 -5 8 2 4 -5 8 -17 9 -12 0 -16 -1 -9 -4z m-54 -51 c3 -5 -1 -9 -9 -9
-8 0 -12 4 -9 9 3 4 7 8 9 8 2 0 6 -4 9 -8z m-250 -59 c4 -10 4 -14 0 -10 -4
4 -16 -1 -28 -10 -20 -18 -20 -18 0 9 23 33 20 32 28 11z m574 -48 c-3 -3 -9
2 -12 12 -6 14 -5 15 5 6 7 -7 10 -15 7 -18z m-765 -180 c-3 -9 -8 -14 -10
-11 -3 3 -2 9 2 15 9 16 15 13 8 -4z m-188 -204 c-3 -6 -11 -11 -17 -11 -6 0
-6 6 2 15 14 17 26 13 15 -4z m-32 -46 c-3 -9 -8 -14 -10 -11 -3 3 -2 9 2 15
9 16 15 13 8 -4z m-76 -98 c0 -8 -6 -14 -14 -14 -9 0 -10 4 -2 14 6 7 12 13
14 13 1 0 2 -6 2 -13z m2027 -263 c3 -8 2 -12 -4 -9 -6 3 -10 10 -10 16 0 14
7 11 14 -7z m12 -56 c5 -7 3 -8 -6 -3 -10 6 -12 4 -7 -8 3 -9 2 -19 -2 -21 -6
-4 -8 30 -2 42 3 5 10 1 17 -10z m0 -73 c-1 -8 -5 -17 -8 -21 -5 -4 -4 16 1
34 3 9 9 -1 7 -13z m-1676 -329 c0 -2 -8 -10 -17 -17 -16 -13 -17 -12 -4 4 13
16 21 21 21 13z m-168 -38 c-7 -7 -12 -8 -12 -2 0 6 3 14 7 17 3 4 9 5 12 2 2
-3 -1 -11 -7 -17z m41 -34 c-4 -12 -8 -13 -14 -3 -9 15 -2 32 11 24 5 -3 6
-13 3 -21z m1714 -39 c0 -8 -4 -12 -9 -9 -5 3 -6 10 -3 15 9 13 12 11 12 -6z
m-1315 -20 c2 3 5 -2 5 -10 0 -19 0 -19 -23 7 -12 14 -13 18 -3 10 9 -6 18
-10 21 -7z m1228 -1 c0 -8 -19 -13 -24 -6 -3 5 1 9 9 9 8 0 15 -2 15 -3z
m-120 -18 c0 -2 -8 -10 -17 -17 -16 -13 -17 -12 -4 4 13 16 21 21 21 13z m50
0 c0 -2 -8 -10 -17 -17 -16 -13 -17 -12 -4 4 13 16 21 21 21 13z m-785 -26
c-4 8 1 6 9 -4 12 -15 16 -16 16 -5 1 20 19 -11 23 -40 2 -11 6 -24 10 -27 4
-4 2 -13 -4 -21 -6 -7 -8 -13 -5 -13 4 0 4 -4 1 -10 -3 -5 -6 -74 -7 -152 -1
-144 -13 -212 -39 -229 -8 -5 -10 -9 -5 -9 5 0 1 -10 -10 -22 -30 -35 -79
-112 -76 -121 1 -5 -2 -6 -8 -2 -6 4 -17 2 -25 -5 -9 -8 -15 -8 -20 0 -3 6
-11 8 -16 5 -12 -8 -11 2 3 28 10 20 10 21 -6 8 -15 -13 -16 -12 -6 13 6 18 6
25 0 21 -6 -3 -10 -1 -10 5 0 6 -4 8 -10 5 -6 -3 -7 1 -4 10 5 13 9 13 23 3 9
-7 4 1 -10 17 -22 24 -26 39 -25 75 1 25 6 52 11 60 7 12 6 13 -6 3 -12 -10
-14 -1 -13 58 1 39 4 73 8 76 3 3 3 10 0 15 -6 9 -8 120 -4 143 1 6 2 14 1 18
-1 5 3 6 7 3 5 -3 17 3 27 14 20 22 37 18 29 -8 -5 -15 -4 -15 6 1 6 10 16 14
23 10 7 -4 5 2 -3 12 -8 10 -10 16 -3 12 6 -4 15 -3 18 3 5 8 11 8 20 0 9 -8
15 -8 20 0 3 6 12 7 18 4 7 -4 9 -4 5 1 -4 4 -2 15 4 24 7 9 -1 5 -17 -9 l-29
-25 29 36 c27 31 32 33 43 20 11 -14 12 -14 7 -1z m-812 -46 c-7 -18 -12 -13
-18 16 -3 18 -2 20 10 10 8 -6 11 -18 8 -26z m1417 12 c0 -2 -8 -10 -17 -17
-16 -13 -17 -12 -4 4 13 16 21 21 21 13z m-279 -33 c13 -16 12 -17 -3 -4 -17
13 -22 21 -14 21 2 0 10 -8 17 -17z m-591 3 c0 -2 -7 -7 -16 -10 -8 -3 -12 -2
-9 4 6 10 25 14 25 6z m781 -19 c-10 -9 -11 -8 -5 6 3 10 9 15 12 12 3 -3 0
-11 -7 -18z m-1324 -17 c-1 -10 -5 -17 -9 -14 -4 3 -4 12 -1 21 5 12 3 14 -7
8 -9 -5 -11 -4 -6 4 10 16 25 4 23 -19z m1378 21 c-9 -8 -36 -10 -30 -2 2 4
11 8 20 8 8 0 13 -3 10 -6z m-903 -119 c-6 -2 -8 -11 -5 -20 4 -15 3 -15 -6
-2 -9 12 -11 11 -11 -10 0 -14 -5 -32 -10 -40 -7 -11 -8 -5 -3 20 7 39 36 84
42 67 2 -6 -1 -13 -7 -15z m824 -12 c1 -16 -3 -27 -7 -24 -14 8 -9 54 5 54 1
0 1 -13 2 -30z m274 26 c0 -3 -4 -8 -10 -11 -5 -3 -10 -1 -10 4 0 6 5 11 10
11 6 0 10 -2 10 -4z m-252 -18 c-2 -7 2 -12 9 -13 6 0 14 -3 17 -7 3 -5 3 -6
-1 -3 -3 3 -12 0 -18 -5 -14 -12 -30 14 -19 31 8 13 14 11 12 -3z m-190 -52
c-13 -19 -24 -33 -26 -31 -5 4 37 65 44 65 2 0 -6 -15 -18 -34z m-1053 5 c3
-5 2 -12 -3 -15 -5 -3 -9 1 -9 9 0 17 3 19 12 6z m-656 -33 c-9 -16 -13 -18
-20 -7 -4 8 -3 19 3 26 16 20 30 5 17 -19z m-184 1 c-4 -5 -1 -9 6 -9 10 0 10
-3 2 -11 -6 -6 -9 -18 -6 -27 4 -10 2 -13 -5 -8 -8 5 -10 2 -5 -10 5 -15 7
-15 15 0 5 9 7 20 3 25 -3 5 -1 12 4 16 6 3 8 13 5 23 -5 15 -4 15 5 1 7 -10
7 -27 2 -47 -6 -20 -5 -34 2 -43 10 -11 9 -11 -4 -1 -13 9 -19 7 -36 -17 -27
-35 -55 -39 -39 -4 6 12 15 23 19 23 5 0 5 -6 1 -12 -4 -7 -3 -9 1 -5 16 14
15 39 -1 33 -11 -4 -9 2 5 20 13 16 19 36 17 51 -3 13 -1 21 5 18 5 -4 7 -11
4 -16z m-41 -20 c-3 -5 -10 -7 -15 -3 -5 3 -7 10 -3 15 3 5 10 7 15 3 5 -3 7
-10 3 -15z m1118 -58 c8 11 9 11 6 1 -2 -8 -7 -12 -10 -10 -4 2 -14 -6 -23
-17 -14 -19 -15 -18 -3 9 7 15 14 23 16 16 3 -9 7 -9 14 1z m-1170 -70 c8 11
9 11 6 1 -4 -16 -22 -18 -24 -2 -2 7 -1 6 3 -1 4 -8 8 -7 15 2z m1367 -55 c9
-11 9 -16 -1 -22 -7 -4 -10 -4 -6 1 4 4 3 14 -3 22 -6 7 -9 13 -6 13 2 0 10
-6 16 -14z m86 -8 c-3 -12 3 -30 12 -40 9 -10 14 -18 12 -19 -2 0 -11 -2 -20
-4 -12 -2 -15 6 -13 39 2 45 2 46 8 46 3 0 3 -10 1 -22z m-54 -22 c-6 -7 -7
-17 -3 -21 4 -5 1 -5 -6 -1 -9 6 -10 11 -3 20 6 7 7 17 3 21 -4 5 -1 5 6 1 9
-6 10 -11 3 -20z m-1595 -41 c1 -20 -3 -33 -10 -32 -6 1 -10 -5 -10 -14 1 -9
-5 -16 -12 -16 -10 0 -9 7 3 28 13 21 14 31 5 42 -9 10 -9 16 0 25 16 16 22 8
24 -33z m1619 16 c3 -5 2 -12 -3 -15 -5 -3 -9 1 -9 9 0 17 3 19 12 6z m1074
-130 c-1 -13 -2 -13 -6 2 -2 9 -9 15 -14 12 -5 -4 -9 1 -9 11 0 13 3 14 15 4
8 -7 14 -20 14 -29z m-1015 -20 c-9 -10 -23 -17 -30 -14 -8 3 -14 -1 -14 -8 0
-7 -3 -10 -6 -6 -4 3 3 18 15 33 11 15 21 21 21 15 0 -7 4 -10 10 -6 5 3 7 13
4 23 -5 16 -5 16 6 0 8 -13 7 -22 -6 -37z m-1848 -26 c-5 -26 8 -35 18 -12 3
6 3 1 0 -13 -5 -21 -4 -23 7 -12 11 10 11 16 1 32 -15 25 -15 27 2 27 15 0 20
-53 5 -63 -5 -3 -6 -11 -3 -17 4 -7 4 -9 -1 -5 -4 4 -15 2 -24 -5 -14 -10 -14
-10 -3 5 8 10 9 19 3 22 -5 4 -13 -4 -17 -16 -6 -21 -7 -21 -21 5 -9 17 -18
25 -26 20 -23 -14 -39 -13 -27 2 6 8 20 12 31 10 12 -3 25 5 35 21 21 31 26
30 20 -1z m-111 -71 c-9 -14 -14 -28 -11 -33 3 -5 -3 -16 -14 -26 -11 -10 -17
-22 -13 -28 3 -5 1 -7 -4 -4 -12 8 -26 -20 -18 -33 3 -5 1 -11 -4 -14 -6 -4
-8 6 -6 24 2 16 -1 33 -7 36 -7 4 -8 3 -4 -4 4 -7 2 -20 -4 -29 -11 -17 -11
-17 -6 0 3 9 0 17 -6 17 -6 0 -3 9 6 19 10 11 18 25 20 33 1 7 5 19 10 27 8
12 11 11 22 -3 11 -16 14 -14 25 18 7 19 17 33 21 30 5 -3 2 -17 -7 -30z m51
-2 c-8 -16 -13 -32 -10 -35 3 -3 0 -8 -7 -13 -8 -4 -10 -3 -5 4 4 7 3 12 -3
12 -6 0 -1 16 11 35 24 42 36 40 14 -3z m-27 -4 c-7 -12 -12 -27 -11 -32 2 -4
-2 -14 -8 -20 -5 -7 -8 -15 -5 -18 3 -3 -1 -11 -9 -17 -11 -10 -14 -9 -12 2 1
8 8 22 15 31 7 8 10 20 6 25 -3 6 2 22 11 36 20 31 31 26 13 -7z m48 -8 c-2
-11 -6 -22 -9 -26 -4 -3 -5 2 -3 13 2 10 4 21 4 26 1 4 3 7 6 7 3 0 4 -9 2
-20z m3079 -86 c2 -12 -1 -13 -12 -3 -7 6 -11 16 -8 21 7 11 17 3 20 -18z
m-3136 -32 c0 -13 2 -13 15 4 13 17 14 16 3 -16 -8 -24 -13 -29 -16 -17 -2 9
-7 17 -12 17 -5 0 -6 8 -3 18 6 15 5 16 -13 2 -18 -14 -18 -14 -5 2 15 20 31
15 31 -10z m3259 -66 c-7 -8 -8 -5 -3 8 6 15 4 17 -7 10 -19 -12 -40 -14 -34
-4 3 5 1 11 -5 15 -5 3 -10 1 -10 -6 0 -7 -3 -10 -6 -6 -3 3 5 19 17 36 l23
31 18 -37 c13 -26 15 -40 7 -47z m-3208 33 c-9 -21 -10 -22 -11 -4 l-1 20 -9
-20 c-5 -11 -9 -14 -9 -7 -1 7 4 23 10 34 15 28 33 9 20 -23z m3005 26 c-1 -8
-5 -17 -8 -21 -5 -4 -4 16 1 34 3 9 9 -1 7 -13z m-3156 0 c0 -1 -15 -14 -32
-31 -27 -23 -29 -24 -10 -3 12 14 20 28 17 31 -3 2 2 5 10 5 8 0 15 -1 15 -2z
m3419 -21 c-6 -8 -9 -17 -6 -21 9 -9 -13 -34 -24 -27 -5 3 -9 -2 -9 -10 0 -9
5 -15 12 -13 7 1 12 -8 13 -21 0 -23 35 -55 35 -32 0 5 -5 10 -10 10 -6 0 -5
6 2 14 16 17 20 14 23 -16 4 -38 5 -39 15 -33 6 3 10 1 10 -5 0 -7 -7 -9 -16
-6 -12 5 -14 1 -10 -17 3 -12 3 -16 0 -9 -3 6 -10 10 -15 7 -5 -4 -6 1 -3 9 3
9 1 16 -6 16 -6 0 -9 3 -7 8 3 4 -6 15 -20 25 -23 18 -24 18 -21 2 2 -10 -3
-20 -9 -22 -7 -3 -13 0 -13 7 0 6 -4 9 -9 5 -5 -3 -12 -1 -16 4 -3 6 3 8 15 6
13 -2 20 1 20 11 0 8 -4 12 -10 9 -5 -3 -10 -1 -10 5 0 6 -6 10 -14 8 -8 -2
-15 2 -15 7 0 6 7 9 15 7 8 -2 14 3 14 10 0 10 2 10 9 0 6 -10 10 -7 15 13 9
37 36 76 48 69 5 -3 4 -12 -3 -20z m-3479 2 c0 -2 -8 -10 -17 -17 -16 -13 -17
-12 -4 4 13 16 21 21 21 13z m145 -7 c11 -16 1 -19 -13 -3 -7 8 -8 14 -3 14 5
0 13 -5 16 -11z m-397 -31 c1 -23 -1 -29 -7 -19 -7 11 -8 29 -2 49 3 10 7 -3
9 -30z m3486 24 c3 -5 -1 -9 -9 -9 -8 0 -12 4 -9 9 3 4 7 8 9 8 2 0 6 -4 9 -8z
m-3154 -38 c0 -2 -8 0 -19 5 -10 6 -22 7 -26 3 -5 -4 -5 -1 -1 6 5 9 12 9 27
2 10 -6 19 -13 19 -16z m3240 0 c0 -8 -19 -13 -24 -6 -3 5 1 9 9 9 8 0 15 -2
15 -3z m60 2 c0 -2 -8 -10 -17 -17 -16 -13 -17 -12 -4 4 13 16 21 21 21 13z
m-132 -32 c0 -17 -3 -22 -8 -13 -5 6 -6 18 -3 26 8 19 11 16 11 -13z m-3534
-5 c-3 -5 -10 -7 -15 -3 -5 3 -7 10 -3 15 3 5 10 7 15 3 5 -3 7 -10 3 -15z
m131 2 c3 -5 1 -12 -5 -16 -5 -3 -10 1 -10 9 0 18 6 21 15 7z m187 -5 c7 4 8
2 4 -5 -9 -13 -26 -5 -25 12 0 9 2 8 6 -1 2 -6 10 -9 15 -6z m-50 -33 c-2 -12
-6 -23 -7 -23 -1 0 -5 11 -7 23 -3 14 0 24 7 24 7 0 10 -10 7 -24z m41 4 c7 3
8 2 4 -2 -14 -16 -36 -14 -29 3 4 10 7 12 10 4 2 -7 9 -9 15 -5z m3252 -15
c-3 -3 0 -10 5 -17 7 -8 5 -12 -5 -12 -8 0 -13 3 -10 5 3 3 0 10 -5 17 -7 8
-5 12 5 12 8 0 13 -3 10 -5z m-3245 -17 c-12 -14 -7 -19 13 -16 5 1 6 -3 2 -9
-5 -8 -11 -7 -21 1 -11 9 -11 15 -3 25 6 8 14 14 16 14 3 0 0 -7 -7 -15z m-71
-8 c8 -10 7 -14 -2 -14 -8 0 -14 6 -14 14 0 7 1 13 2 13 2 0 8 -6 14 -13z
m3512 -4 c12 -16 12 -17 -2 -6 -9 7 -20 9 -24 5 -5 -4 -5 -1 -1 6 9 16 11 15
27 -5z m-3468 -21 c15 -16 15 -19 2 -19 -8 0 -13 3 -10 5 3 3 0 11 -6 19 -17
20 -5 16 14 -5z m-89 0 c3 -5 -1 -9 -9 -9 -8 0 -12 4 -9 9 3 4 7 8 9 8 2 0 6
-4 9 -8z m146 -5 c0 -2 -10 -12 -22 -23 l-23 -19 19 23 c18 21 26 27 26 19z
m-401 -50 c8 -10 7 -14 -2 -14 -8 0 -14 6 -14 14 0 7 1 13 2 13 2 0 8 -6 14
-13z m58 -9 c-3 -8 -6 -5 -6 6 -1 11 2 17 5 13 3 -3 4 -12 1 -19z m2067 -14
c4 -9 2 -22 -4 -29 -5 -6 -8 -14 -5 -17 3 -3 -1 -11 -9 -17 -11 -9 -16 -9 -22
0 -5 8 -3 9 6 4 9 -6 11 -4 5 5 -6 9 -4 11 6 5 8 -5 11 -5 7 0 -4 4 -2 17 4
29 6 11 6 17 2 11 -40 -45 -57 -67 -46 -61 14 8 15 4 12 -94 -2 -98 -10 -105
-10 -9 0 49 -3 69 -9 59 -6 -8 -7 -19 -5 -25 3 -5 -1 -1 -10 9 -14 17 -16 17
-22 3 -3 -10 -13 -17 -22 -17 -9 0 -35 -20 -58 -45 -44 -48 -55 -47 -56 7 -1
27 10 42 68 97 64 60 143 108 129 78 -3 -7 0 -4 7 6 16 21 24 22 32 1z m416
10 c0 -8 -19 -13 -24 -6 -3 5 1 9 9 9 8 0 15 -2 15 -3z m-2334 -41 c-3 -4 -6
-1 -6 6 0 7 -4 9 -10 6 -6 -4 -7 1 -3 11 6 15 7 15 15 -1 6 -9 7 -19 4 -22z
m2236 9 c-5 -15 -4 -16 13 -2 17 14 18 13 13 -15 -3 -16 -2 -39 2 -50 8 -19 9
-19 9 2 1 12 5 25 11 28 10 6 9 -2 -5 -40 -13 -34 -12 -55 1 -66 15 -12 20 3
27 84 6 58 24 85 20 29 -1 -20 0 -29 3 -19 8 26 27 21 20 -5 -3 -13 -6 -51 -6
-86 0 -36 -4 -61 -9 -58 -12 8 -25 -49 -15 -66 4 -7 -1 -6 -10 3 -10 9 -18 30
-18 48 -1 17 -6 34 -11 38 -6 3 -8 2 -5 -3 3 -5 0 -14 -7 -21 -10 -9 -15 -6
-24 13 -6 14 -11 35 -12 47 0 12 -3 16 -6 10 -11 -28 -33 -13 -35 25 l-1 37
-7 -45 -7 -45 -3 45 c-7 108 -7 115 14 126 29 14 56 6 48 -14z m-2441 4 c14 8
11 -2 -4 -14 -10 -8 -13 -6 -14 11 0 12 1 16 4 9 3 -6 9 -10 14 -6z m2285 -32
c-4 -14 -10 -23 -14 -20 -4 2 -9 -7 -11 -22 -1 -15 -4 -38 -6 -52 -2 -14 -4
-36 -4 -50 l-2 -25 -14 25 -14 25 -2 -35 c-1 -32 -2 -33 -9 -10 -4 14 -8 43
-9 64 -1 50 -13 40 -18 -16 -8 -76 -21 -62 -19 19 2 75 16 123 36 123 6 0 10
-11 10 -24 0 -14 5 -28 10 -31 6 -3 10 5 10 19 0 18 4 24 14 20 9 -3 20 3 28
15 15 25 23 11 14 -25z m56 19 c5 -70 2 -153 -4 -153 -5 0 -8 13 -8 29 0 17
-4 32 -9 35 -5 3 -8 -7 -6 -22 1 -15 -4 -43 -10 -62 l-12 -35 -7 50 c-4 28 -9
63 -11 78 -3 15 -1 25 4 22 5 -3 15 12 22 32 15 47 18 53 30 53 5 0 10 -12 11
-27z m1589 0 c13 -16 12 -17 -3 -4 -17 13 -22 21 -14 21 2 0 10 -8 17 -17z
m-3938 -51 c-6 -15 -5 -16 13 -2 18 14 18 14 5 -2 -16 -21 -30 -15 -28 12 1
10 5 17 9 14 4 -3 4 -12 1 -22z m2156 -54 c-1 -83 -1 -83 -10 -30 -5 28 -7 62
-5 75 3 12 5 25 5 30 1 4 3 7 6 7 3 0 4 -37 4 -82z m1532 65 c13 -16 12 -17
-3 -4 -17 13 -22 21 -14 21 2 0 10 -8 17 -17z m310 4 c-6 -8 -7 -18 -3 -22 4
-5 1 -5 -6 -1 -10 6 -10 11 -1 22 6 8 14 14 16 14 3 0 0 -6 -6 -13z m98 -13
c-14 -18 -24 -11 -15 11 3 9 11 13 16 10 8 -5 7 -11 -1 -21z m66 -56 c4 -3 2
-9 -3 -12 -5 -3 -15 1 -21 8 -10 11 -9 14 3 12 9 -1 18 -5 21 -8z m-3934 -42
c-6 -7 -8 -16 -4 -19 3 -4 11 0 17 9 10 14 13 13 28 -3 16 -17 15 -20 -8 -51
-14 -18 -30 -30 -34 -27 -12 7 -31 -30 -22 -41 4 -5 -1 -2 -10 5 -10 7 -18 16
-18 19 0 3 3 3 6 -1 3 -3 17 7 31 24 14 16 30 26 36 22 6 -4 8 0 4 9 -3 9 -1
20 5 26 6 6 6 12 0 16 -6 3 -13 -2 -16 -12 -4 -10 -19 -30 -33 -43 -15 -13
-22 -17 -15 -7 9 11 10 18 2 23 -7 4 -6 13 2 28 7 12 13 25 14 30 1 4 2 10 3
13 0 3 6 2 11 -1 8 -5 8 -11 1 -19z m78 -20 c9 -10 7 -17 -6 -27 -16 -12 -17
-12 -6 2 10 12 10 18 1 27 -7 7 -9 12 -6 12 3 0 11 -6 17 -14z m3796 -25 c3
-5 2 -12 -3 -15 -5 -3 -9 1 -9 9 0 17 3 19 12 6z m128 -25 c7 4 9 3 4 -1 -8
-9 -47 -18 -47 -11 0 3 3 12 6 21 6 16 8 16 16 1 5 -9 15 -13 21 -10z m-76 -1
c0 -8 -4 -12 -9 -9 -5 3 -6 10 -3 15 9 13 12 11 12 -6z m-3861 -7 c4 -7 4 -10
-1 -6 -11 11 -36 -12 -28 -25 3 -5 1 -7 -4 -4 -12 7 -36 -16 -28 -26 3 -4 2
-5 -2 -2 -10 8 -13 36 -4 30 5 -2 19 7 31 20 27 29 27 29 36 13z m3779 -27 c3
-5 2 -12 -3 -15 -5 -3 -9 1 -9 9 0 17 3 19 12 6z m160 -32 c5 1 2 -6 -8 -16
-13 -16 -14 -22 -4 -33 10 -12 9 -12 -5 -1 -10 7 -17 16 -16 19 3 16 -15 41
-25 35 -6 -3 -7 -1 -3 5 5 9 13 9 29 0 12 -7 26 -11 32 -9z m-2595 -39 c0 -5
-5 -10 -11 -10 -5 0 -7 5 -4 10 3 6 8 10 11 10 2 0 4 -4 4 -10z m977 -7 c-4
-3 -1 -13 6 -22 11 -14 10 -14 -5 -2 -16 12 -16 31 -1 31 4 0 3 -3 0 -7z
m-1051 -39 c-4 -9 -9 -15 -11 -12 -3 3 -3 13 1 22 4 9 9 15 11 12 3 -3 3 -13
-1 -22z m2755 3 c-10 -9 -11 -8 -5 6 3 10 9 15 12 12 3 -3 0 -11 -7 -18z"/>
<path d="M2495 1619 c-4 -6 -5 -12 -2 -15 2 -3 7 2 10 11 7 17 1 20 -8 4z"/>
<path d="M775 1171 c-3 -5 -2 -12 3 -15 5 -3 9 1 9 9 0 17 -3 19 -12 6z"/>
<path d="M602 967 c-7 -8 -7 -18 -2 -27 6 -8 10 -10 11 -5 0 6 2 18 4 28 4 20
1 21 -13 4z"/>
<path d="M452 860 c-17 -28 2 -33 26 -7 20 21 20 23 4 24 -10 1 -23 -7 -30
-17z m28 6 c0 -2 -8 -10 -17 -17 -16 -13 -17 -12 -4 4 13 16 21 21 21 13z"/>
<path d="M3751 766 c-9 -10 -8 -16 4 -26 13 -11 15 -8 15 14 0 30 -3 32 -19
12z"/>
<path d="M3823 725 c0 -8 4 -12 9 -9 5 3 6 10 3 15 -9 13 -12 11 -12 -6z"/>
<path d="M3800 671 c0 -5 7 -12 16 -15 14 -5 15 -4 4 9 -14 17 -20 19 -20 6z"/>
<path d="M2563 325 c0 -22 2 -30 4 -17 2 12 2 30 0 40 -3 9 -5 -1 -4 -23z"/>
<path d="M227 286 c-3 -8 -2 -18 3 -21 13 -8 24 15 12 27 -6 6 -11 4 -15 -6z"/>
<path d="M3026 3122 c-3 -5 1 -9 9 -9 8 0 12 4 9 9 -3 4 -7 8 -9 8 -2 0 -6 -4
-9 -8z"/>
<path d="M2003 3075 c0 -8 4 -12 9 -9 5 3 6 10 3 15 -9 13 -12 11 -12 -6z"/>
<path d="M3157 3065 c3 -9 8 -14 11 -11 2 3 13 1 23 -5 11 -5 19 -7 19 -5 0 3
-13 12 -30 21 -27 14 -29 14 -23 0z"/>
<path d="M1869 2943 c-13 -16 -12 -17 4 -4 9 7 17 15 17 17 0 8 -8 3 -21 -13z"/>
<path d="M3406 2888 c3 -5 10 -6 15 -3 13 9 11 12 -6 12 -8 0 -12 -4 -9 -9z"/>
<path d="M1820 2850 c0 -5 5 -10 11 -10 5 0 7 5 4 10 -3 6 -8 10 -11 10 -2 0
-4 -4 -4 -10z"/>
<path d="M3690 2159 c0 -5 5 -7 10 -4 6 3 10 8 10 11 0 2 -4 4 -10 4 -5 0 -10
-5 -10 -11z"/>
<path d="M1690 1916 c0 -2 8 -10 18 -17 15 -13 16 -12 3 4 -13 16 -21 21 -21
13z"/>
<path d="M1809 1918 c-5 -18 -6 -38 -1 -34 7 8 12 36 6 36 -2 0 -4 -1 -5 -2z"/>
<path d="M1670 1906 c0 -2 8 -10 18 -17 15 -13 16 -12 3 4 -13 16 -21 21 -21
13z"/>
<path d="M1763 1805 c0 -8 4 -12 9 -9 5 3 6 10 3 15 -9 13 -12 11 -12 -6z"/>
<path d="M1879 1768 c-7 -23 -4 -35 7 -35 9 0 11 4 4 12 -5 7 -7 15 -3 18 3 4
3 7 0 7 -4 0 -7 -1 -8 -2z"/>
<path d="M1334 1733 c2 -10 0 -23 -5 -29 -5 -6 -4 -11 5 -11 13 0 16 40 4 52
-4 4 -5 -1 -4 -12z"/>
<path d="M1269 1713 l-24 -28 28 24 c25 23 32 31 24 31 -2 0 -14 -12 -28 -27z"/>
<path d="M1290 1703 c-12 -16 -27 -28 -33 -28 -7 0 -12 -4 -12 -10 0 -5 -4
-15 -7 -21 -5 -7 1 -11 15 -10 17 1 22 -4 21 -21 -1 -13 3 -20 7 -17 5 3 9 -1
9 -8 0 -9 3 -9 10 2 8 13 10 12 10 -4 0 -11 3 -17 6 -13 4 3 2 19 -3 34 -10
26 -2 78 8 57 10 -20 4 -109 -8 -107 -17 3 -36 -24 -27 -39 14 -22 13 -37 -2
-31 -8 3 -14 0 -14 -7 0 -6 4 -9 9 -6 8 6 23 -18 25 -39 1 -5 8 -10 16 -10 9
0 14 7 12 19 -2 10 8 30 21 45 14 14 27 35 29 46 4 24 30 27 40 5 5 -8 5 -1 2
17 -3 19 -1 34 7 39 9 5 10 2 6 -9 -3 -10 -2 -17 3 -17 5 0 7 -8 4 -17 -5 -14
-4 -15 4 -4 7 10 12 7 21 -15 l11 -29 -6 29 c-4 25 -3 28 9 18 11 -10 14 -8
13 11 -1 12 -5 28 -9 35 -8 12 -7 13 14 16 6 0 16 9 23 18 7 10 17 14 22 10 5
-4 0 3 -10 16 -22 25 -27 27 -23 10 1 -7 -3 -12 -10 -13 -6 0 -15 -3 -19 -7
-4 -4 -13 -3 -21 3 -7 6 -13 8 -13 3 0 -5 -4 -2 -10 6 -6 9 -5 20 3 30 10 13
10 13 -5 1 -13 -9 -15 -18 -8 -30 5 -10 5 -23 -1 -32 -5 -7 -9 -9 -10 -4 0 6
-2 21 -5 34 -2 13 1 31 8 39 11 13 11 14 -2 7 -20 -13 -32 -13 -50 -1 -13 9
-13 9 -2 -5 7 -9 9 -25 5 -35 -6 -17 -7 -16 -14 2 -7 17 -8 17 -8 1 -1 -10 -6
-15 -11 -12 -6 4 -8 10 -5 14 2 5 -5 8 -17 7 -12 0 -23 5 -26 13 -3 9 0 11 9
6 8 -5 11 -5 7 0 -4 4 -3 14 3 22 6 7 9 13 6 13 -3 0 -15 -12 -27 -27z m114
-47 c8 -43 22 -52 36 -25 12 21 14 21 25 6 12 -16 13 -16 19 -1 4 9 9 14 13
11 3 -4 13 -1 21 6 13 11 14 9 2 -13 -8 -16 -15 -20 -18 -12 -3 10 -8 8 -17
-5 -7 -10 -10 -22 -7 -28 12 -19 10 -32 -5 -32 -8 0 -19 11 -24 25 -8 20 -12
22 -24 12 -8 -7 -15 -19 -15 -27 0 -8 -4 -12 -9 -9 -10 7 -34 -19 -37 -41 -3
-20 -25 -44 -35 -37 -9 5 -13 -11 -9 -31 1 -5 -2 -7 -6 -2 -11 10 -13 47 -2
41 4 -3 8 2 8 10 0 9 -6 15 -12 14 -7 -2 -13 3 -13 10 0 6 3 11 6 10 3 -2 14
3 23 11 13 11 16 25 13 57 -4 38 -3 42 15 39 13 -3 23 4 30 21 13 29 15 28 22
-10z m-106 -22 c0 -19 -3 -32 -6 -29 -4 4 -7 10 -7 13 0 14 -17 32 -24 28 -4
-3 -8 1 -8 9 0 8 4 12 8 9 4 -2 10 0 14 6 11 19 23 1 23 -36z"/>
<path d="M1382 1648 c-7 -7 -18 -13 -24 -13 -6 0 -13 -7 -15 -15 -4 -12 -3
-12 5 -1 7 10 12 7 20 -15 8 -23 11 -25 12 -9 l1 20 9 -20 c8 -18 9 -18 9 -2
1 11 6 15 12 11 6 -3 4 5 -5 18 -9 14 -13 28 -9 31 3 4 4 7 2 7 -3 0 -11 -6
-17 -12z m11 -21 c3 -8 -1 -14 -9 -14 -15 0 -18 9 -7 20 9 9 10 9 16 -6z"/>
<path d="M1448 1628 c-3 -7 2 -24 9 -38 14 -25 14 -25 9 8 -5 39 -11 49 -18
30z"/>
<path d="M1351 1586 c0 -11 -9 -28 -18 -39 -13 -14 -14 -21 -6 -24 7 -2 9 -12
6 -21 -5 -13 -3 -14 6 -6 7 6 13 18 15 27 1 8 8 23 16 33 8 10 10 15 3 11 -7
-5 -13 1 -16 15 -3 18 -5 19 -6 4z m0 -39 c-6 -8 -7 -18 -3 -22 4 -5 1 -5 -6
-1 -10 6 -10 11 -1 22 6 8 14 14 16 14 3 0 0 -6 -6 -13z"/>
<path d="M1281 1654 c0 -11 3 -14 6 -6 3 7 2 16 -1 19 -3 4 -6 -2 -5 -13z"/>
<path d="M1810 1720 c-9 -6 -10 -10 -3 -10 6 0 15 5 18 10 8 12 4 12 -15 0z"/>
<path d="M2896 1712 c-3 -5 1 -9 9 -9 8 0 12 4 9 9 -3 4 -7 8 -9 8 -2 0 -6 -4
-9 -8z"/>
<path d="M1711 1693 c11 -12 5 -17 -14 -14 -5 1 -6 -3 -2 -9 3 -6 11 -7 17 -4
7 4 8 -2 3 -17 -4 -13 -4 -21 1 -16 14 13 12 74 -2 74 -10 0 -11 -4 -3 -14z"/>
<path d="M1623 1665 c0 -8 5 -11 10 -8 7 4 8 -1 4 -13 -7 -18 -6 -18 7 -1 9
11 16 14 19 7 3 -6 4 -5 3 2 -2 7 -7 13 -12 13 -5 0 -14 3 -20 7 -6 4 -11 1
-11 -7z"/>
<path d="M1206 1648 c3 -5 10 -6 15 -3 13 9 11 12 -6 12 -8 0 -12 -4 -9 -9z"/>
<path d="M1675 1630 c-5 -8 -4 -11 2 -7 22 14 21 -22 0 -36 -19 -13 -20 -17
-8 -29 11 -11 13 -11 9 2 -3 8 4 21 14 30 17 13 17 17 5 34 -11 15 -16 16 -22
6z"/>
<path d="M1723 1615 c-3 -9 -3 -18 -1 -21 3 -3 8 4 11 16 6 23 -1 27 -10 5z"/>
<path d="M2934 1615 c1 -8 5 -17 9 -21 3 -4 1 -16 -5 -28 -8 -16 -8 -18 1 -10
19 17 23 61 7 67 -8 3 -13 0 -12 -8z"/>
<path d="M1565 1580 c-22 -23 -32 -27 -42 -19 -10 9 -13 8 -13 -4 0 -9 5 -19
10 -22 6 -4 8 -10 5 -15 -3 -5 -1 -12 5 -15 6 -4 10 -3 9 2 -4 21 2 24 19 12
16 -13 16 -12 -1 7 -16 20 -17 22 0 35 15 12 16 12 10 -4 -4 -11 -3 -16 4 -12
5 4 8 12 6 18 -2 7 2 20 11 30 25 29 8 19 -23 -13z"/>
<path d="M1539 1583 c-13 -16 -12 -17 4 -4 9 7 17 15 17 17 0 8 -8 3 -21 -13z"/>
<path d="M1599 1580 c-3 -20 -4 -25 -13 -39 -6 -10 -5 -12 2 -7 7 4 12 2 12
-4 0 -6 5 -8 11 -4 8 5 8 9 -1 14 -9 6 -9 9 1 13 9 4 10 6 2 6 -7 1 -10 8 -7
16 4 8 3 15 0 15 -3 0 -7 -4 -7 -10z"/>
<path d="M1637 1573 c-4 -3 -7 -13 -7 -22 1 -13 3 -13 11 2 11 19 8 33 -4 20z"/>
<path d="M1145 1559 c-3 -4 2 -6 10 -5 21 3 28 13 10 13 -9 0 -18 -4 -20 -8z"/>
<path d="M3336 1534 c-3 -8 -10 -13 -15 -9 -5 3 -13 1 -16 -5 -5 -8 -11 -8
-20 0 -17 14 -31 -5 -17 -23 5 -7 8 -21 6 -32 -2 -16 4 -13 26 13 19 23 29 29
33 20 4 -10 6 -10 6 0 1 8 6 10 14 6 9 -5 9 -4 0 6 -6 7 -9 19 -6 26 3 8 3 14
0 14 -3 0 -8 -7 -11 -16z m-30 -23 c16 13 16 12 0 -13 -16 -25 -36 -42 -21
-19 3 5 1 12 -5 16 -5 3 -10 12 -10 18 0 8 4 7 9 -2 8 -13 12 -13 27 0z"/>
<path d="M1075 1531 c-3 -5 -2 -12 3 -15 5 -3 9 1 9 9 0 17 -3 19 -12 6z"/>
<path d="M1125 1530 c-3 -5 1 -20 9 -32 14 -20 18 -17 15 10 -1 4 -6 6 -11 4
-6 -2 -8 4 -5 13 7 17 2 20 -8 5z"/>
<path d="M1391 1528 c0 -9 3 -20 9 -23 5 -3 -2 -17 -18 -32 -15 -14 -20 -20
-11 -14 9 6 20 7 24 3 5 -4 5 -2 2 4 -4 7 0 15 9 18 12 5 15 2 10 -9 -3 -9 -2
-13 4 -10 13 8 13 35 -1 35 -5 0 -7 5 -3 12 4 6 3 8 -4 4 -6 -3 -13 2 -15 11
-4 16 -5 16 -6 1z"/>
<path d="M3095 1495 c0 -13 3 -21 8 -18 4 2 7 10 7 18 0 8 -3 16 -7 18 -5 3
-8 -5 -8 -18z"/>
<path d="M1069 1473 c-13 -16 -12 -17 4 -4 9 7 17 15 17 17 0 8 -8 3 -21 -13z"/>
<path d="M1107 1472 c-15 -16 -15 -19 -2 -19 8 0 13 3 10 5 -3 3 0 11 6 19 17
20 5 16 -14 -5z"/>
<path d="M996 1438 c3 -5 10 -6 15 -3 13 9 11 12 -6 12 -8 0 -12 -4 -9 -9z"/>
<path d="M1184 1401 c9 -10 13 -21 9 -26 -5 -4 -3 -5 4 -2 17 10 9 40 -11 43
-16 2 -16 1 -2 -15z"/>
<path d="M743 1393 c4 -3 1 -13 -6 -22 -11 -14 -10 -14 5 -2 16 12 16 31 1 31
-4 0 -3 -3 0 -7z"/>
<path d="M2046 1392 c-2 -4 -1 -14 4 -22 7 -11 9 -9 7 8 -1 24 -3 26 -11 14z"/>
<path d="M975 1381 c-3 -5 -2 -12 3 -15 5 -3 9 1 9 9 0 17 -3 19 -12 6z"/>
<path d="M1159 1378 c0 -2 -2 -11 -4 -21 -3 -15 -1 -16 11 -6 7 6 11 15 8 20
-5 9 -13 12 -15 7z"/>
<path d="M744 1348 c-10 -13 -12 -17 -4 -11 8 6 18 12 23 12 8 1 11 11 4 17
-2 2 -12 -6 -23 -18z"/>
<path d="M834 1356 c1 -8 5 -18 8 -22 4 -3 5 1 4 10 -1 8 -5 18 -8 22 -4 3 -5
-1 -4 -10z"/>
<path d="M2110 1355 c-7 -9 -11 -17 -9 -20 3 -2 10 5 17 15 14 24 10 26 -8 5z"/>
<path d="M895 1351 c-3 -5 -2 -12 3 -15 5 -3 9 1 9 9 0 17 -3 19 -12 6z"/>
<path d="M1004 1339 c0 -12 -5 -24 -13 -27 -9 -3 -11 0 -6 8 6 9 4 11 -4 5
-18 -10 2 -27 22 -19 9 3 15 14 14 25 -4 27 -15 34 -13 8z"/>
<path d="M778 1333 c-7 -9 -8 -13 -1 -11 6 2 11 -1 12 -7 1 -5 -3 -10 -8 -10
-5 0 -13 -3 -17 -7 -3 -4 3 -6 14 -3 13 2 26 -3 33 -13 10 -16 10 -16 5 0 -3
10 -1 20 5 24 7 4 6 10 0 18 -6 7 -9 15 -6 18 3 2 -2 5 -10 5 -8 0 -21 -7 -27
-14z m31 -7 c9 -11 9 -16 -1 -22 -7 -4 -10 -4 -6 1 4 4 3 14 -3 22 -6 7 -9 13
-6 13 2 0 10 -6 16 -14z"/>
<path d="M649 1283 c-12 -16 -12 -17 2 -6 9 7 20 9 24 5 5 -4 5 -1 1 6 -9 16
-11 15 -27 -5z"/>
<path d="M894 1278 c-4 -7 -4 -10 1 -6 4 4 14 3 21 -3 11 -9 10 -15 -3 -35 -9
-14 -14 -26 -12 -28 2 -2 15 13 28 33 12 20 20 33 15 28 -4 -4 -15 0 -25 9
-14 12 -18 13 -25 2z"/>
<path d="M791 1272 c-1 -7 -5 -11 -9 -8 -5 3 -9 -1 -9 -8 0 -8 7 -13 16 -11
16 2 17 5 8 28 -4 9 -6 9 -6 -1z"/>
<path d="M890 1240 c-6 -11 -8 -20 -6 -20 3 0 10 9 16 20 6 11 8 20 6 20 -3 0
-10 -9 -16 -20z"/>
<path d="M559 1213 c-13 -16 -12 -17 4 -4 9 7 17 15 17 17 0 8 -8 3 -21 -13z"/>
<path d="M750 1200 c-12 -16 -19 -30 -16 -30 2 0 14 14 26 30 12 17 19 30 16
30 -2 0 -14 -13 -26 -30z"/>
<path d="M933 1217 c0 -8 6 -14 14 -14 9 0 10 4 2 14 -6 7 -12 13 -14 13 -1 0
-2 -6 -2 -13z"/>
<path d="M825 1211 c-3 -5 -2 -12 3 -15 5 -3 9 1 9 9 0 17 -3 19 -12 6z"/>
<path d="M853 1181 c-1 -20 0 -22 6 -8 4 10 10 18 14 18 15 -2 11 12 -3 14
-11 2 -16 -6 -17 -24z"/>
<path d="M566 1192 c-3 -5 1 -9 9 -9 8 0 12 4 9 9 -3 4 -7 8 -9 8 -2 0 -6 -4
-9 -8z"/>
<path d="M1939 1148 c-5 -18 -6 -38 -1 -34 7 8 12 36 6 36 -2 0 -4 -1 -5 -2z"/>
<path d="M645 1110 c10 -11 20 -20 23 -20 3 0 -3 9 -13 20 -10 11 -20 20 -23
20 -3 0 3 -9 13 -20z"/>
<path d="M689 1103 c-13 -16 -12 -17 4 -4 9 7 17 15 17 17 0 8 -8 3 -21 -13z"/>
<path d="M551 1028 c-7 -13 -10 -20 -6 -15 5 4 18 -1 29 -10 12 -10 18 -14 14
-9 -4 5 -3 15 3 22 7 8 7 14 -1 19 -6 4 -9 3 -8 -2 2 -4 -1 -8 -7 -8 -5 0 -9
6 -7 13 4 18 -2 15 -17 -10z"/>
<path d="M709 1035 c-1 -3 -3 -9 -4 -15 -1 -5 -3 -11 -4 -12 -2 -2 -5 -14 -7
-28 -3 -17 -1 -21 6 -14 10 10 23 74 14 74 -2 0 -5 -2 -5 -5z"/>
<path d="M140 936 c0 -2 8 -10 18 -17 15 -13 16 -12 3 4 -13 16 -21 21 -21 13z"/>
<path d="M403 925 c0 -8 4 -12 9 -9 5 3 6 10 3 15 -9 13 -12 11 -12 -6z"/>
<path d="M222 903 c1 -4 -3 -18 -10 -30 -17 -31 -8 -29 12 1 10 16 12 27 6 31
-6 4 -9 3 -8 -2z"/>
<path d="M266 897 c3 -10 9 -15 12 -12 3 3 0 11 -7 18 -10 9 -11 8 -5 -6z"/>
<path d="M69 898 c-6 -21 -5 -37 2 -32 5 3 7 9 4 14 -3 4 1 11 7 13 10 4 10 6
1 6 -7 1 -13 0 -14 -1z"/>
<path d="M289 883 c-1 -7 -3 -17 -4 -23 -1 -5 -3 -18 -4 -27 -2 -16 -3 -15
-10 2 -5 11 -6 24 -3 29 3 5 0 6 -6 3 -11 -8 -5 -44 10 -53 5 -3 12 3 15 15 3
11 10 18 15 15 5 -3 2 -16 -7 -30 -11 -17 -13 -30 -7 -41 8 -14 11 -13 22 8
12 22 12 23 -3 10 -21 -17 -22 -7 -1 24 9 14 13 25 9 25 -4 0 -1 8 6 17 8 10
9 14 2 10 -7 -4 -16 0 -22 10 -6 11 -11 13 -12 6z"/>
<path d="M3607 863 c-3 -5 -1 -17 4 -28 6 -17 7 -16 6 8 -1 28 -3 32 -10 20z"/>
<path d="M64 838 c-12 -14 -13 -18 -3 -10 9 6 18 10 21 7 2 -3 5 2 5 10 0 19
0 19 -23 -7z"/>
<path d="M99 823 c-13 -16 -12 -17 4 -4 9 7 17 15 17 17 0 8 -8 3 -21 -13z"/>
<path d="M155 831 c-3 -5 -2 -12 3 -15 5 -3 9 1 9 9 0 17 -3 19 -12 6z"/>
<path d="M3702 800 c-13 -22 -7 -45 9 -35 5 4 14 15 20 27 7 12 7 18 1 14 -6
-3 -12 -2 -14 4 -2 6 -9 1 -16 -10z"/>
<path d="M199 745 c-1 -3 -2 -8 -3 -12 -1 -5 -5 -14 -10 -21 -4 -7 -6 -16 -3
-19 3 -2 11 5 17 17 9 16 15 19 24 11 10 -8 17 -7 26 3 10 13 8 15 -9 11 -12
-2 -21 0 -21 6 0 9 -19 13 -21 4z"/>
<path d="M4089 488 c-5 -19 -8 -50 -4 -46 7 7 15 48 9 48 -2 0 -4 -1 -5 -2z"/>
<path d="M4186 402 c-3 -5 1 -9 9 -9 8 0 12 4 9 9 -3 4 -7 8 -9 8 -2 0 -6 -4
-9 -8z"/>
<path d="M2700 372 c0 -7 5 -12 10 -12 6 0 10 -11 10 -25 0 -14 5 -24 12 -22
7 1 12 -2 13 -8 0 -5 6 -19 12 -30 6 -11 9 -29 7 -40 -1 -10 2 -25 8 -32 5 -7
7 -20 4 -29 -5 -14 -4 -15 9 -4 12 10 15 10 15 -3 0 -9 8 -23 17 -33 10 -9 19
-31 21 -48 2 -17 8 -35 14 -41 8 -7 8 -6 3 4 -6 10 -4 12 4 6 9 -5 10 -10 2
-18 -16 -16 -13 -37 4 -37 12 0 15 14 15 65 0 55 2 63 16 58 14 -5 15 -3 3 18
-7 13 -12 26 -11 29 1 3 -2 5 -7 5 -5 0 -13 4 -18 9 -5 5 -3 6 5 2 7 -4 12 -1
12 9 0 10 -5 13 -12 9 -8 -5 -9 -2 -4 11 5 15 4 16 -9 5 -13 -11 -14 -10 -9 5
5 13 4 16 -4 11 -7 -4 -10 -2 -7 6 3 7 -15 33 -39 58 -24 25 -42 49 -38 54 3
5 0 6 -7 2 -7 -5 -21 0 -32 10 -11 10 -19 12 -19 6z m130 -163 c0 -5 -9 -9
-20 -9 -22 0 -23 1 -14 24 5 13 9 14 20 5 8 -6 14 -15 14 -20z"/>
<path d="M4216 362 c-3 -5 1 -9 9 -9 8 0 12 4 9 9 -3 4 -7 8 -9 8 -2 0 -6 -4
-9 -8z"/>
<path d="M2643 343 c-7 -3 -13 -21 -13 -41 0 -27 8 -44 31 -68 17 -18 42 -54
55 -80 l24 -49 -5 40 c-3 22 -7 50 -9 63 -4 20 4 27 27 23 4 -1 3 8 -3 19 -15
29 -30 25 -36 -10 -12 -59 -34 -23 -34 56 0 41 -12 56 -37 47z m97 -93 c0 -5
-5 -10 -11 -10 -5 0 -7 5 -4 10 3 6 8 10 11 10 2 0 4 -4 4 -10z"/>
<path d="M4283 235 c0 -8 4 -12 9 -9 5 3 6 10 3 15 -9 13 -12 11 -12 -6z"/>
<path d="M4303 205 c0 -8 4 -12 9 -9 5 3 6 10 3 15 -9 13 -12 11 -12 -6z"/>
<path d="M2685 120 c3 -5 8 -10 11 -10 2 0 4 5 4 10 0 6 -5 10 -11 10 -5 0 -7
-4 -4 -10z"/>
<path d="M2897 70 c-11 -40 -8 -70 6 -70 9 0 12 12 9 38 -5 54 -8 59 -15 32z"/>
<path d="M2750 37 c0 -26 4 -37 15 -37 19 0 19 29 0 54 -14 19 -15 18 -15 -17z"/>
<path d="M2386 45 c4 -8 11 -15 16 -15 6 0 5 6 -2 15 -7 8 -14 15 -16 15 -2 0
-1 -7 2 -15z"/>
<path d="M1710 45 c0 -5 5 -17 10 -25 5 -8 10 -10 10 -5 0 6 -5 17 -10 25 -5
8 -10 11 -10 5z"/>
</g>
</svg>
