<svg id="visual" viewBox="0 0 960 540" width="960" height="540" xmlns="http://www.w3.org/2000/svg" xmlns:xlink="http://www.w3.org/1999/xlink" version="1.1"><rect x="0" y="0" width="960" height="540" fill="#F24B04"></rect><path d="M0 208L22.8 195.2C45.7 182.3 91.3 156.7 137 159.5C182.7 162.3 228.3 193.7 274 198.3C319.7 203 365.3 181 411.2 178.7C457 176.3 503 193.7 548.8 206C594.7 218.3 640.3 225.7 686 213C731.7 200.3 777.3 167.7 823 155.3C868.7 143 914.3 151 937.2 155L960 159L960 0L937.2 0C914.3 0 868.7 0 823 0C777.3 0 731.7 0 686 0C640.3 0 594.7 0 548.8 0C503 0 457 0 411.2 0C365.3 0 319.7 0 274 0C228.3 0 182.7 0 137 0C91.3 0 45.7 0 22.8 0L0 0Z" fill="#884ab2"></path><path d="M0 119L22.8 118.2C45.7 117.3 91.3 115.7 137 117.8C182.7 120 228.3 126 274 126.8C319.7 127.7 365.3 123.3 411.2 127.3C457 131.3 503 143.7 548.8 146.5C594.7 149.3 640.3 142.7 686 144.2C731.7 145.7 777.3 155.3 823 156.3C868.7 157.3 914.3 149.7 937.2 145.8L960 142L960 0L937.2 0C914.3 0 868.7 0 823 0C777.3 0 731.7 0 686 0C640.3 0 594.7 0 548.8 0C503 0 457 0 411.2 0C365.3 0 319.7 0 274 0C228.3 0 182.7 0 137 0C91.3 0 45.7 0 22.8 0L0 0Z" fill="#7b3eaf"></path><path d="M0 92L22.8 92.8C45.7 93.7 91.3 95.3 137 99.8C182.7 104.3 228.3 111.7 274 113.2C319.7 114.7 365.3 110.3 411.2 114.8C457 119.3 503 132.7 548.8 135.3C594.7 138 640.3 130 686 118.3C731.7 106.7 777.3 91.3 823 83C868.7 74.7 914.3 73.3 937.2 72.7L960 72L960 0L937.2 0C914.3 0 868.7 0 823 0C777.3 0 731.7 0 686 0C640.3 0 594.7 0 548.8 0C503 0 457 0 411.2 0C365.3 0 319.7 0 274 0C228.3 0 182.7 0 137 0C91.3 0 45.7 0 22.8 0L0 0Z" fill="#6c33ad"></path><path d="M0 74L22.8 69C45.7 64 91.3 54 137 50C182.7 46 228.3 48 274 49.5C319.7 51 365.3 52 411.2 60.7C457 69.3 503 85.7 548.8 91.5C594.7 97.3 640.3 92.7 686 93.3C731.7 94 777.3 100 823 96.2C868.7 92.3 914.3 78.7 937.2 71.8L960 65L960 0L937.2 0C914.3 0 868.7 0 823 0C777.3 0 731.7 0 686 0C640.3 0 594.7 0 548.8 0C503 0 457 0 411.2 0C365.3 0 319.7 0 274 0C228.3 0 182.7 0 137 0C91.3 0 45.7 0 22.8 0L0 0Z" fill="#5b27aa"></path><path d="M0 57L22.8 52.7C45.7 48.3 91.3 39.7 137 38.3C182.7 37 228.3 43 274 46.8C319.7 50.7 365.3 52.3 411.2 50.2C457 48 503 42 548.8 38C594.7 34 640.3 32 686 29.3C731.7 26.7 777.3 23.3 823 23.5C868.7 23.7 914.3 27.3 937.2 29.2L960 31L960 0L937.2 0C914.3 0 868.7 0 823 0C777.3 0 731.7 0 686 0C640.3 0 594.7 0 548.8 0C503 0 457 0 411.2 0C365.3 0 319.7 0 274 0C228.3 0 182.7 0 137 0C91.3 0 45.7 0 22.8 0L0 0Z" fill="#471ca8"></path></svg>