<svg id="visual" viewBox="0 0 430 20" width="430" height="20" xmlns="http://www.w3.org/2000/svg" xmlns:xlink="http://www.w3.org/1999/xlink" version="1.1"><path d="M0 2L14.3 4.5C28.7 7 57.3 12 86 13.7C114.7 15.3 143.3 13.7 172 11.7C200.7 9.7 229.3 7.3 258 7.3C286.7 7.3 315.3 9.7 344 11.7C372.7 13.7 401.3 15.3 415.7 16.2L430 17L430 21L415.7 21C401.3 21 372.7 21 344 21C315.3 21 286.7 21 258 21C229.3 21 200.7 21 172 21C143.3 21 114.7 21 86 21C57.3 21 28.7 21 14.3 21L0 21Z" fill="#ffffff" stroke-linecap="round" stroke-linejoin="miter"></path></svg>