<svg version="1.1" id="Layer_1" xmlns="http://www.w3.org/2000/svg" xmlns:xlink="http://www.w3.org/1999/xlink" x="0px" y="0px"
	 width="100%" viewBox="0 0 1290 945" enable-background="new 0 0 1290 945" xml:space="preserve">
<path fill="#392CDC" opacity="1.000000" stroke="none" 
	d="
M859.000000,946.000000 
	C573.044250,946.000000 287.088531,946.000000 1.066406,946.000000 
	C1.066406,631.093018 1.066406,316.186066 1.066406,1.000000 
	C286.695984,1.000000 572.392090,1.000000 858.545044,1.468657 
	C859.003662,72.310524 858.995544,142.683731 859.046204,213.056915 
	C859.048096,215.660889 859.623047,218.264420 859.949097,221.323669 
	C859.649292,227.178055 859.331360,232.576965 859.009644,238.447205 
	C859.006287,275.953247 859.006775,312.987915 859.006104,350.489014 
	C859.011169,392.248322 859.017456,433.541199 859.018677,475.313110 
	C859.015076,554.183960 859.016602,632.575745 859.014465,711.438232 
	C859.007141,789.939270 859.003540,867.969666 859.000000,946.000000 
M101.734093,847.604431 
	C102.608078,847.417114 104.000198,847.509766 104.276016,846.999207 
	C107.068184,841.831726 109.677841,836.565491 112.338737,831.327026 
	C108.399117,833.412476 105.203445,835.975281 102.364120,838.885681 
	C100.630508,840.662720 99.444923,842.974365 97.323593,844.993835 
	C92.220711,840.433838 87.117828,835.873840 82.014946,831.313843 
	C81.712906,831.552856 81.410866,831.791809 81.108818,832.030823 
	C85.851891,841.773010 90.594971,851.515198 95.338043,861.257385 
	C97.925514,856.682617 103.603767,853.779053 101.734093,847.604431 
M580.400879,509.877899 
	C571.267761,520.293762 570.362549,532.357727 573.872986,545.010193 
	C576.997925,556.273315 586.567200,563.095642 597.474365,561.253174 
	C602.636414,560.381226 607.413818,557.231873 612.177063,555.194885 
	C612.177063,557.762878 612.959229,561.617310 611.936340,564.911133 
	C611.076477,567.679871 608.566040,570.973022 605.991333,571.959717 
	C600.364075,574.116333 594.530701,573.685547 589.924072,568.738586 
	C589.211731,567.973633 588.017395,567.057800 587.140686,567.146606 
	C582.800659,567.586365 578.492493,568.340088 574.030579,569.004272 
	C575.542053,574.815308 578.662476,578.418579 583.137329,580.666260 
	C594.069885,586.157593 605.333374,586.083374 616.417908,581.392517 
	C624.351624,578.035156 628.329468,571.693481 628.289001,562.884827 
	C628.210327,545.743713 628.265991,528.601990 628.266052,511.460541 
	C628.266113,509.350250 628.266052,507.239929 628.266052,505.126404 
	C622.661316,505.126404 617.621399,505.126404 612.535400,505.126404 
	C612.339905,507.844360 612.170837,510.194702 611.965942,513.042786 
	C602.398132,502.015747 591.869446,500.958374 580.400879,509.877899 
M586.034668,445.434357 
	C586.926575,441.933380 588.539673,438.442596 588.589478,434.929688 
	C588.849243,416.622772 588.716675,398.310242 588.696472,379.999695 
	C588.695435,379.066223 588.470703,378.133057 588.343811,377.151184 
	C583.091553,377.151184 578.168640,377.151184 573.072144,377.151184 
	C572.824158,379.720276 572.601318,382.028473 572.320129,384.941559 
	C558.613892,368.131470 537.423706,377.584320 533.747253,394.589355 
	C531.866272,403.289703 531.762695,411.749084 535.114746,420.057800 
	C539.056702,429.828735 549.138489,435.690826 559.301331,433.190002 
	C564.139832,431.999420 568.473999,428.759308 572.867798,426.533112 
	C572.867798,428.216919 572.917358,430.870270 572.858582,433.521210 
	C572.676392,441.735931 568.942078,445.620850 560.649902,444.949615 
	C557.125183,444.664368 553.743469,442.426147 550.337402,440.979706 
	C549.346680,440.558990 548.443359,439.226532 547.591064,439.304718 
	C543.231873,439.704529 538.902527,440.429047 534.218201,441.088501 
	C537.045471,450.173248 543.281006,454.359528 551.207031,455.721069 
	C564.067993,457.930389 576.578979,457.795197 586.034668,445.434357 
M78.970581,539.500000 
	C78.970581,546.952942 78.970581,554.405884 78.970581,561.820190 
	C96.489372,561.820190 113.527916,561.820190 130.466003,561.820190 
	C130.466003,557.319824 130.466003,553.240479 130.466003,548.489624 
	C118.580467,548.489624 107.028877,548.489624 95.361710,548.489624 
	C95.361710,542.334167 95.361710,536.862366 95.361710,530.755127 
	C106.234283,530.755127 116.966255,530.755127 127.580307,530.755127 
	C127.580307,525.884277 127.580307,521.656799 127.580307,516.942993 
	C116.619171,516.942993 106.044479,516.942993 95.580231,516.942993 
	C95.580231,510.719940 95.580231,505.001373 95.580231,498.837555 
	C107.373291,498.837555 118.796280,498.837555 130.307693,498.837555 
	C130.307693,494.162689 130.307693,489.950745 130.307693,485.686157 
	C113.021454,485.686157 96.134232,485.686157 79.336647,485.686157 
	C79.167847,486.382263 79.021416,486.705200 79.020943,487.028290 
	C78.996368,504.185516 78.984116,521.342773 78.970581,539.500000 
M326.188690,370.342407 
	C310.874054,349.895325 278.605652,352.349792 266.773163,374.930725 
	C262.127411,383.796631 261.258179,393.401367 262.527405,403.138550 
	C265.483185,425.814575 282.255554,438.278076 304.880829,434.874359 
	C318.878632,432.768585 330.319183,421.082123 330.665955,408.123779 
	C326.188507,408.123779 321.704071,407.935181 317.255219,408.249786 
	C316.070038,408.333557 314.446655,409.732880 313.958221,410.914246 
	C311.201111,417.582886 306.042633,420.560272 299.183167,420.937653 
	C291.923431,421.337067 285.841461,418.645172 282.494385,412.135925 
	C277.058228,401.563812 277.019348,390.548523 282.574158,380.014404 
	C286.184021,373.168671 292.627197,370.450348 300.246429,371.251709 
	C307.084808,371.970947 312.046021,375.362000 314.161499,382.307404 
	C314.462585,383.295898 315.740112,384.644440 316.622650,384.688629 
	C321.341919,384.924927 326.079285,384.800049 332.128357,384.800049 
	C329.998779,379.454529 328.304230,375.200989 326.188690,370.342407 
M414.241150,549.476074 
	C414.241150,553.583923 414.241150,557.691772 414.241150,561.969482 
	C419.895782,561.969482 424.980225,561.969482 430.525360,561.969482 
	C430.525360,559.251282 430.516785,556.790466 430.526855,554.329773 
	C430.563660,545.340454 430.351013,536.340271 430.735229,527.365662 
	C431.001495,521.145264 435.695343,517.180176 441.617432,517.264648 
	C447.272308,517.345276 450.817810,520.765625 451.513855,527.045532 
	C451.769440,529.351196 451.676361,531.699463 451.680237,534.028381 
	C451.695648,543.296143 451.686584,552.563965 451.686584,561.915283 
	C457.312347,561.915283 462.384613,561.915283 467.228577,561.915283 
	C467.228577,547.795227 467.724762,533.978027 467.044708,520.218933 
	C466.628815,511.804108 460.640839,506.207886 452.667175,504.355316 
	C444.511169,502.460388 436.855347,505.270752 431.980347,511.912598 
	C431.583191,512.453674 430.993561,512.853394 429.730774,514.028442 
	C429.730774,503.910919 429.730774,494.831726 429.730774,485.712036 
	C424.378265,485.712036 419.495911,485.712036 414.241180,485.712036 
	C414.241180,506.904999 414.241180,527.694031 414.241150,549.476074 
M344.996246,434.522430 
	C349.274780,434.522430 353.553314,434.522430 358.280243,434.522430 
	C358.280243,432.325134 358.279633,430.695648 358.280365,429.066193 
	C358.284363,420.069366 358.151276,411.069733 358.333740,402.076508 
	C358.497345,394.011749 362.709625,389.432587 369.470642,389.457184 
	C376.160950,389.481506 379.554504,393.680420 379.638855,402.103394 
	C379.677246,405.934998 379.642181,409.767334 379.641846,413.599335 
	C379.641205,420.388733 379.641663,427.178131 379.641663,434.233643 
	C385.224731,434.233643 390.291443,434.233643 395.828094,434.233643 
	C395.828094,428.816650 395.918945,423.692596 395.808044,418.572906 
	C395.613556,409.594543 395.954468,400.536896 394.851532,391.664093 
	C393.645660,381.963287 386.152649,376.370636 376.395142,376.024170 
	C368.627289,375.748322 362.837555,379.100006 357.852478,386.877869 
	C357.852478,376.132996 357.852478,367.077698 357.852478,357.894531 
	C352.413452,357.894531 347.489685,357.894531 342.677032,357.894531 
	C342.460052,358.530853 342.262787,358.839783 342.262360,359.148956 
	C342.229980,383.140137 342.187286,407.131470 342.275909,431.122284 
	C342.280029,432.243744 343.466217,433.360809 344.996246,434.522430 
M322.037109,550.663879 
	C323.289825,554.280579 324.696442,557.852783 325.758606,561.524597 
	C327.291016,566.821899 323.536926,571.280518 318.042053,570.874756 
	C316.758698,570.779968 315.488800,570.502502 313.879547,570.258606 
	C312.726074,574.369019 311.639771,578.240051 310.554871,582.106201 
	C327.485718,586.705017 337.550690,581.405945 342.879333,565.918335 
	C347.370331,552.865295 352.054871,539.878906 356.619904,526.851257 
	C359.118286,519.721375 361.546539,512.566895 364.239502,504.746613 
	C359.316437,504.746613 355.163879,504.932159 351.037537,504.682770 
	C348.187286,504.510498 346.867523,505.468140 346.167542,508.250427 
	C344.586060,514.536865 342.723175,520.753296 340.932220,526.985962 
	C339.172333,533.110596 337.359894,539.220093 335.570496,545.336243 
	C334.213074,544.433350 333.902679,543.590454 333.659119,542.728577 
	C330.447662,531.363892 327.291168,519.983154 323.982910,508.646790 
	C323.574677,507.247925 322.444214,505.045929 321.521881,504.979706 
	C316.480896,504.617950 311.400360,504.807404 306.023712,504.807404 
	C308.877258,513.030273 311.424164,520.420959 314.007385,527.798889 
	C316.590149,535.175598 319.209229,542.539551 322.037109,550.663879 
M438.806641,376.506073 
	C430.310669,375.303406 422.142548,375.983917 414.950653,381.190033 
	C410.973785,384.068817 408.371155,387.898895 407.623291,393.352966 
	C412.497253,393.723419 416.827393,394.480988 421.073883,394.153625 
	C422.659241,394.031403 423.826630,390.985992 425.588531,389.982880 
	C427.526093,388.879761 429.901703,388.182159 432.134338,388.035126 
	C437.114532,387.707245 440.596313,390.359558 440.768341,394.327057 
	C440.996948,399.598267 436.683563,399.154205 433.433899,399.784149 
	C427.737091,400.888519 421.848419,401.275787 416.320038,402.910187 
	C408.561005,405.203979 404.553864,411.922180 405.243011,419.809174 
	C405.951904,427.922302 411.296143,433.750305 419.357269,434.992645 
	C427.611389,436.264648 435.213257,435.169220 441.218842,427.421295 
	C441.557983,430.324005 441.780640,432.229919 442.011322,434.204346 
	C447.088867,434.204346 451.837616,434.204346 456.468262,434.204346 
	C456.689026,433.562256 456.888458,433.251770 456.889343,432.940704 
	C456.922272,421.449036 456.951324,409.957306 456.950104,398.465607 
	C456.948700,385.392578 452.552765,379.895050 438.806641,376.506073 
M236.572769,549.307678 
	C231.670929,552.137451 226.692047,552.183411 221.942657,549.182312 
	C217.982483,546.679932 216.414047,542.853516 216.928268,537.676147 
	C229.705719,537.676147 242.292419,537.676147 255.584930,537.676147 
	C255.429108,534.235168 255.397598,531.298218 255.146698,528.380066 
	C253.943115,514.382202 244.619156,504.907532 231.268616,504.037445 
	C215.842728,503.032104 204.096008,511.167236 201.472183,525.396301 
	C199.161407,537.927612 200.088318,550.187500 211.602219,558.203186 
	C222.206039,565.585266 233.918304,565.135498 245.246597,559.380981 
	C250.593094,556.665039 253.942062,552.090271 255.077789,545.198120 
	C248.602249,546.528992 241.836349,541.619934 236.572769,549.307678 
M505.027618,394.979523 
	C505.369446,397.766266 505.973877,400.550018 506.006104,403.340332 
	C506.124542,413.594543 506.053101,423.850983 506.053101,434.125305 
	C511.773407,434.125305 516.820129,434.125305 522.015137,434.125305 
	C522.015137,420.568848 522.411499,407.404205 521.893066,394.275696 
	C521.457947,383.256317 513.358093,376.179932 502.607086,376.028900 
	C495.254547,375.925629 489.585114,378.991425 485.005402,385.799194 
	C484.698517,382.212402 484.482300,379.685394 484.259857,377.085205 
	C479.068817,377.085205 474.282196,377.085205 469.401611,377.085205 
	C469.401611,396.215088 469.401611,415.116760 469.401611,434.153809 
	C474.769989,434.153809 479.812683,434.153809 485.209076,434.153809 
	C485.209076,422.799927 485.141449,411.823242 485.239136,400.848083 
	C485.284485,395.753265 487.382294,391.631927 492.497223,390.054596 
	C497.377167,388.549805 501.746033,389.587952 505.027618,394.979523 
M630.117004,435.395355 
	C643.877869,434.019897 652.027100,427.843506 652.845825,417.941498 
	C650.391296,417.711060 647.932190,417.462402 645.469666,417.253204 
	C641.857422,416.946320 638.698853,416.540649 635.930542,420.437592 
	C633.195557,424.287628 626.306519,424.445465 621.566406,422.072144 
	C616.966858,419.769165 614.971985,415.901978 615.528809,409.681946 
	C628.205994,409.681946 640.944641,409.681946 653.891663,409.681946 
	C653.891663,406.615326 654.039307,404.121490 653.866882,401.649963 
	C652.956360,388.596222 645.740112,379.733063 633.762146,376.823242 
	C621.609497,373.871033 609.228821,378.372925 603.379883,388.654846 
	C597.086548,399.717926 597.011353,411.390259 602.976562,422.576508 
	C608.487061,432.910004 618.225037,435.765198 630.117004,435.395355 
M145.143784,433.780182 
	C157.752625,428.127869 163.982208,416.784576 162.420486,402.583740 
	C161.210464,391.580994 156.811020,382.682343 146.038559,378.304199 
	C133.862350,373.355652 120.205185,376.332520 112.567131,385.229706 
	C104.912811,394.145813 103.501305,411.312592 109.542282,422.017975 
	C116.107422,433.652252 129.095917,438.117889 145.143784,433.780182 
M524.935425,527.989807 
	C526.158020,520.649353 530.165771,516.863647 536.293701,517.260986 
	C542.397583,517.656677 545.631897,521.605957 545.899780,529.024414 
	C545.947815,530.354980 545.914795,531.688660 545.914917,533.020874 
	C545.915649,542.635437 545.915283,552.250000 545.915283,561.917847 
	C551.507141,561.917847 556.585571,561.917847 561.365234,561.917847 
	C561.365234,547.805237 561.879211,533.984131 561.175293,520.225281 
	C560.742981,511.774689 555.203003,506.096985 546.800415,504.433380 
	C538.633423,502.816498 531.198059,504.453461 526.104065,511.950287 
	C525.730652,512.499878 525.087402,512.866272 523.930847,513.874817 
	C523.930847,510.370911 523.930847,507.751221 523.930847,505.018097 
	C518.801331,505.018097 514.031799,505.018097 509.200775,505.018097 
	C509.200775,524.160095 509.200775,543.032532 509.200775,561.992676 
	C514.517517,561.992676 519.468567,561.992676 524.897644,561.992676 
	C524.897644,550.804443 524.897644,539.850708 524.935425,527.989807 
M165.873459,362.777588 
	C165.873413,363.609589 165.987747,364.460419 165.854599,365.270538 
	C165.038651,370.234711 167.278931,371.569855 171.981766,371.236389 
	C177.553619,370.841278 183.174942,371.143524 189.282898,371.143524 
	C189.282898,392.438568 189.282898,413.164978 189.282898,434.063965 
	C194.979645,434.063965 200.150772,434.063965 205.856537,434.063965 
	C205.856537,412.868134 205.856537,392.147369 205.856537,370.990051 
	C213.822403,370.990051 221.246674,370.990051 228.801483,370.990051 
	C228.801483,366.408966 228.801483,362.278381 228.801483,358.058136 
	C228.027512,357.880219 227.391525,357.607178 226.755081,357.606140 
	C207.618927,357.574615 188.482132,357.647797 169.347137,357.492340 
	C165.719147,357.462860 165.752350,359.451538 165.873459,362.777588 
M665.911377,427.541565 
	C674.015015,437.647400 696.406433,437.540863 705.791321,430.644196 
	C711.532104,426.425568 714.196106,420.883850 713.094788,413.748138 
	C712.095703,407.274902 707.475525,404.174438 701.847656,402.318817 
	C698.547302,401.230621 695.068420,400.689270 691.679688,399.861847 
	C688.618225,399.114319 685.405029,398.673889 682.583496,397.386322 
	C681.103394,396.710846 679.426331,394.481140 679.471558,393.003326 
	C679.517456,391.505188 681.283203,389.519165 682.807312,388.707153 
	C687.547058,386.181885 693.301758,387.829956 696.522888,392.078369 
	C697.143860,392.897430 698.125000,394.028046 698.933228,394.022461 
	C703.188049,393.993317 707.440674,393.645844 712.039795,393.389587 
	C710.971924,385.983185 707.339905,381.264160 701.312500,378.730316 
	C691.801392,374.731934 682.120972,374.877777 672.713135,379.171356 
	C665.723633,382.361237 661.930542,389.525879 663.261719,396.772888 
	C664.683289,404.511810 670.231079,408.165283 677.296082,409.934845 
	C682.296082,411.187195 687.469299,411.834778 692.358032,413.399567 
	C694.193176,413.987000 696.573181,416.355408 696.641418,417.997620 
	C696.709351,419.631042 694.523193,422.044373 692.736267,422.938934 
	C687.538696,425.540771 681.582397,423.612732 678.196716,419.003845 
	C677.535339,418.103394 676.283142,417.058136 675.310120,417.064697 
	C670.896851,417.094452 666.485962,417.477020 660.919067,417.799530 
	C662.735168,421.493011 664.087891,424.243988 665.911377,427.541565 
M167.474396,544.698120 
	C166.963257,543.303650 166.367874,541.933655 165.954391,540.510803 
	C162.891205,529.970215 159.947983,519.393433 156.735306,508.898987 
	C156.254929,507.329865 154.668732,505.074890 153.413437,504.949768 
	C148.701263,504.480133 143.914200,504.761597 138.518997,504.761597 
	C143.870773,520.121521 148.888672,534.704651 154.035660,549.242065 
	C158.771942,562.619446 158.831863,562.495667 173.193405,562.319519 
	C176.100082,562.283875 177.197113,561.209534 178.062714,558.656494 
	C182.121048,546.686462 186.381470,534.785095 190.534134,522.846863 
	C192.571365,516.990234 194.531097,511.106598 196.691391,504.748077 
	C191.905624,504.748077 187.902084,504.979736 183.939484,504.676544 
	C180.629837,504.423279 179.323502,505.736389 178.462173,508.809448 
	C175.142807,520.652283 171.558517,532.420959 167.474396,544.698120 
M403.239746,557.907776 
	C402.705048,555.339539 402.170319,552.771240 401.598389,550.024231 
	C397.797119,549.759399 392.636627,551.293762 392.339966,545.767151 
	C391.827484,536.220337 392.197906,526.626099 392.197906,516.553711 
	C396.053467,516.553711 399.308441,516.553711 402.736694,516.553711 
	C402.736694,512.439331 402.736694,508.838562 402.736694,504.631958 
	C399.133240,504.631958 395.744202,504.631958 391.877441,504.631958 
	C391.877441,499.787537 391.877441,495.542328 391.877441,491.380005 
	C386.332520,491.380005 381.299042,491.380005 375.801514,491.380005 
	C375.801514,496.027893 375.801514,500.249176 375.801514,504.548370 
	C373.052307,504.714966 370.780182,504.852631 368.630981,504.982849 
	C368.630981,509.089081 368.630981,512.801941 368.630981,516.527100 
	C371.322296,516.737793 373.564087,516.913330 376.065063,517.109131 
	C376.065063,526.277039 376.061981,535.071289 376.065735,543.865601 
	C376.072296,559.243591 386.644623,566.935303 401.359985,562.098816 
	C402.307129,561.787476 402.726807,559.871338 403.239746,557.907776 
M276.242310,562.234802 
	C278.015747,562.234802 279.789185,562.234802 281.886261,562.234802 
	C281.886261,551.125427 281.818481,540.656555 281.908691,530.189087 
	C281.975464,522.440430 286.715485,517.923035 294.492462,517.934082 
	C296.438477,517.936829 298.384521,517.934509 300.500793,517.934509 
	C300.500793,513.480835 300.500793,509.075867 300.500793,504.572266 
	C292.328094,502.436188 286.487976,505.426514 281.765198,513.002930 
	C281.462067,509.634033 281.261841,507.408875 281.050140,505.055969 
	C275.879608,505.055969 270.980316,505.055969 266.043884,505.055969 
	C266.043884,524.217041 266.043884,543.067993 266.043884,562.235107 
	C269.379791,562.235107 272.357086,562.235107 276.242310,562.234802 
M95.194580,416.498993 
	C95.194580,397.055176 95.194580,377.611359 95.194580,357.994476 
	C89.583481,357.994476 84.403023,357.994476 79.261505,357.994476 
	C79.261505,383.622070 79.261505,408.838531 79.261505,434.210449 
	C84.630714,434.210449 89.711655,434.210449 95.194580,434.210449 
	C95.194580,428.439484 95.194580,422.968781 95.194580,416.498993 
M480.143799,524.500732 
	C480.143799,536.921326 480.143799,549.341858 480.143799,561.912231 
	C485.674774,561.912231 490.731781,561.912231 495.829346,561.912231 
	C495.829346,542.751160 495.829346,523.915710 495.829346,505.168213 
	C490.431946,505.168213 485.403503,505.168213 480.470642,505.168213 
	C480.319366,505.910126 480.197510,506.232910 480.196014,506.556213 
	C480.169861,512.204529 480.158447,517.852905 480.143799,524.500732 
M274.951202,852.422180 
	C272.541962,848.160706 271.685425,843.123962 275.340515,839.992676 
	C278.247467,837.502197 283.108307,837.292419 287.101715,836.070129 
	C287.353699,836.571838 287.605652,837.073547 287.857635,837.575195 
	C288.395905,836.272156 288.934174,834.969116 289.460297,833.695435 
	C282.526886,830.132568 274.711487,831.101868 270.367157,835.848206 
	C266.317657,840.272400 265.784058,849.677795 269.277100,855.062012 
	C272.366516,859.824097 280.587341,861.741333 287.456635,859.110840 
	C288.453857,858.729065 289.727325,857.449646 289.786285,856.516846 
	C290.042480,852.465271 289.896210,848.388245 289.896210,844.293152 
	C285.754272,844.293152 282.492737,844.293152 277.603790,844.293152 
	C279.090515,846.487244 279.827789,848.735779 280.867462,848.885498 
	C283.650146,849.286438 284.570007,850.846863 283.650513,852.871948 
	C283.153351,853.966980 280.902679,854.720581 279.413025,854.772888 
	C278.115570,854.818604 276.775879,853.663574 274.951202,852.422180 
M240.116028,840.415100 
	C239.144989,832.681152 231.889984,829.728394 220.976089,832.921448 
	C220.976089,840.739624 220.871384,848.691284 221.101822,856.633179 
	C221.132401,857.686707 222.867569,858.690796 223.813339,859.717712 
	C224.892731,858.644409 226.571121,857.734985 226.919571,856.461609 
	C227.534592,854.214233 227.338898,851.744934 227.506851,848.967346 
	C234.263550,850.531860 233.041336,862.229187 242.770584,859.065308 
	C240.277298,855.205322 237.991714,851.666809 236.136902,848.795288 
	C237.706848,845.783325 238.895187,843.503418 240.116028,840.415100 
M164.938080,854.691772 
	C162.500565,854.226196 158.835205,856.134460 158.663483,851.335632 
	C158.486023,846.377258 162.221161,847.985352 164.651962,847.891785 
	C168.235519,847.753662 168.343765,845.953552 167.354858,843.002136 
	C165.277039,842.876099 163.061691,843.063538 161.069016,842.484619 
	C160.076889,842.196350 159.051636,840.566223 158.889511,839.422913 
	C158.792160,838.736328 160.208893,837.356628 161.159454,837.108093 
	C162.719971,836.699951 164.556549,837.289612 166.080933,836.821167 
	C167.128906,836.499268 167.845673,835.099182 168.710464,834.181030 
	C167.841736,833.436157 167.004593,832.095825 166.098862,832.047791 
	C161.815308,831.820435 157.512985,831.946411 152.521591,831.946411 
	C152.521591,837.663208 152.521637,842.940186 152.521576,848.217224 
	C152.521423,860.124390 152.521408,860.124207 164.422806,859.771790 
	C164.754929,859.761963 165.158051,859.885315 165.407578,859.739868 
	C166.534042,859.083130 167.617096,858.351929 168.715775,857.647583 
	C167.740692,856.668030 166.765610,855.688477 164.938080,854.691772 
M262.384644,836.103699 
	C262.980621,833.961182 263.194000,831.985718 260.079865,831.954102 
	C255.784073,831.910522 251.487503,831.943237 246.531082,831.943237 
	C246.531082,837.715210 246.531662,843.004822 246.530930,848.294434 
	C246.529282,860.181030 246.529022,860.180725 258.539124,859.774719 
	C259.037964,859.757874 259.703278,859.957886 260.005920,859.709473 
	C260.986847,858.904236 261.834869,857.937073 262.734009,857.032288 
	C261.882141,856.264221 261.137848,855.076416 260.153748,854.824097 
	C258.582886,854.421326 256.660034,855.078430 255.250336,854.458679 
	C254.115997,853.959961 252.864197,852.225952 252.879776,851.056213 
	C252.894028,849.985046 254.415634,848.777588 255.511810,847.944275 
	C256.045380,847.538757 257.128326,847.789307 257.955109,847.847839 
	C261.643524,848.109253 262.820465,846.601318 261.249512,842.689697 
	C259.517181,842.689697 257.602173,843.050049 255.928131,842.570007 
	C254.699570,842.217712 253.786942,840.763672 252.733505,839.800659 
	C253.751648,838.858704 254.630585,837.424561 255.820023,837.088135 
	C257.686981,836.560181 259.763367,836.772522 262.384644,836.103699 
M200.039627,832.309937 
	C199.738724,837.555542 199.233383,842.799011 199.178024,848.047180 
	C199.049194,860.260315 199.134293,860.157166 211.438766,859.833252 
	C215.286133,859.731934 216.038864,858.307129 214.671295,854.637146 
	C212.564987,854.637146 210.435791,855.083069 208.656387,854.486206 
	C207.390976,854.061768 206.020660,852.328613 205.797714,850.995544 
	C205.652328,850.126160 207.294144,848.583923 208.464188,847.952026 
	C210.460602,846.873779 214.646133,849.700623 214.629196,845.266296 
	C214.612350,840.856750 210.407440,843.715088 208.432068,842.585876 
	C207.267960,841.920288 206.557617,840.460938 205.643188,839.358582 
	C206.649536,838.564514 207.566864,837.287354 208.681671,837.082031 
	C210.701736,836.709839 212.839462,836.976440 214.717163,836.976440 
	C215.890976,833.409363 215.374146,831.742004 211.908676,831.893799 
	C208.250931,832.053894 204.583511,831.992737 200.039627,832.309937 
M307.166443,859.773193 
	C310.253845,859.817139 313.652435,860.171265 311.680664,854.895813 
	C309.443359,854.785767 307.037201,855.048157 304.906219,854.402466 
	C303.836151,854.078125 302.743042,852.141174 302.646820,850.859497 
	C302.577637,849.938477 303.961945,848.506348 305.027069,848.013245 
	C306.131989,847.501709 307.760376,848.173889 308.924744,847.722290 
	C310.027039,847.294739 310.824463,846.081177 311.755951,845.213318 
	C310.778656,844.391785 309.844635,843.507629 308.799347,842.784363 
	C308.458527,842.548523 307.827606,842.736633 307.329620,842.722412 
	C305.008057,842.655945 302.002045,842.935547 302.759674,839.441101 
	C303.002350,838.321716 305.804657,837.574158 307.551544,837.023621 
	C308.887054,836.602783 310.404846,836.760376 312.253632,836.632080 
	C312.137878,834.920105 312.045074,833.547546 311.935181,831.922302 
	C307.667053,831.922302 303.849548,832.070068 300.049500,831.876160 
	C296.932404,831.717041 295.982086,833.037109 296.089081,835.980713 
	C296.251892,840.458862 296.127228,844.947571 296.125977,849.431763 
	C296.123108,859.776245 296.123413,859.776245 307.166443,859.773193 
M190.820786,847.444336 
	C192.478180,842.487915 194.135574,837.531494 195.793671,832.572876 
	C191.643066,831.176758 189.600037,832.061951 188.592575,835.936707 
	C187.258713,841.066772 185.349686,846.047302 183.271683,852.355408 
	C181.293930,846.077942 179.566864,841.230225 178.268204,836.270203 
	C177.259048,832.415955 175.374207,830.914978 170.891342,832.694946 
	C173.798264,841.155640 176.592026,849.635132 179.740768,857.980652 
	C180.106323,858.949585 182.493149,859.722656 183.845062,859.589966 
	C185.142899,859.462585 186.870255,858.305420 187.429504,857.133484 
	C188.782349,854.298523 189.564240,851.191223 190.820786,847.444336 
M136.677032,845.480652 
	C136.677032,841.086182 136.677032,836.691772 136.677032,831.926270 
	C134.157120,832.049377 132.593018,832.125793 131.030090,832.202148 
	C131.030090,841.567993 131.030090,850.455200 131.030090,859.773193 
	C135.575989,859.773193 139.725449,859.973816 143.835953,859.661377 
	C145.221756,859.556091 146.508606,858.148865 147.840683,857.336548 
	C146.435898,856.453369 145.088608,855.449341 143.600479,854.741394 
	C142.921310,854.418335 141.958389,854.612976 141.134399,854.687012 
	C138.019348,854.966553 136.400375,853.765625 136.671524,850.450867 
	C136.779510,849.130493 136.681015,847.793213 136.677032,845.480652 
M482.336639,495.202698 
	C483.327667,495.784729 484.255890,496.548492 485.320862,496.916595 
	C489.419373,498.333344 493.370056,497.341156 495.260010,493.695282 
	C496.469238,491.362518 496.472260,487.505066 495.367035,485.084015 
	C493.732880,481.504395 489.885468,480.531830 485.950958,481.499634 
	C479.748138,483.025391 477.968414,488.763214 482.336639,495.202698 
z"/>
<path fill="#3D2EDF" opacity="1.000000" stroke="none" 
	d="
M859.468628,946.000000 
	C859.003540,867.969666 859.007141,789.939270 859.481079,711.444946 
	C904.659302,710.664917 949.367249,710.348877 994.424316,710.235901 
	C996.079773,710.613892 997.386047,710.941101 998.692383,710.941406 
	C1030.765747,710.948364 1062.838989,710.920715 1094.936890,711.377075 
	C1095.009277,720.955505 1095.057129,730.056213 1095.105225,739.419983 
	C1095.126465,740.032715 1095.147461,740.382385 1095.134155,741.216431 
	C1095.066528,809.800598 1095.033325,877.900269 1095.000000,946.000000 
	C1016.645752,946.000000 938.291565,946.000000 859.468628,946.000000 
M1006.500000,772.002441 
	C980.004517,772.002808 953.508484,772.083008 927.013977,771.926025 
	C922.529602,771.899475 920.879456,773.202148 920.901306,777.881409 
	C921.059937,811.874878 920.981201,845.869507 921.005249,879.863770 
	C921.006165,881.194153 921.288513,882.524353 921.357056,883.127136 
	C958.348572,846.140625 995.270142,809.224060 1032.496826,772.002441 
	C1024.307739,772.002441 1015.903870,772.002441 1006.500000,772.002441 
z"/>
<path fill="#433FEE" opacity="1.000000" stroke="none" 
	d="
M859.013428,237.975861 
	C859.331360,232.576965 859.649292,227.178055 859.955200,220.882385 
	C860.692993,201.044708 864.773682,182.707489 870.631226,164.795502 
	C883.348755,125.906242 904.697083,92.511063 934.721802,64.575462 
	C952.683289,47.863728 972.702332,34.389450 994.781982,23.843767 
	C1017.963379,12.771869 1042.291138,5.738334 1067.829102,2.854730 
	C1068.941650,2.729108 1069.945557,1.640215 1071.000000,1.000012 
	C1071.444458,1.000000 1071.888916,1.000000 1072.960815,1.226068 
	C1075.725464,1.301422 1077.862793,1.150709 1080.000000,0.999997 
	C1085.022095,1.000000 1090.044189,1.000000 1095.533081,1.468657 
	C1095.988037,38.972103 1095.976196,76.006889 1095.525513,113.041916 
	C1087.321655,113.883720 1079.433838,114.122536 1071.813232,115.673431 
	C1042.178223,121.704422 1017.445374,136.249832 998.610962,160.048553 
	C980.652954,182.739807 971.107605,208.590698 970.684814,237.793625 
	C933.143738,237.890808 896.078552,237.933334 859.013428,237.975861 
M1032.031738,26.342886 
	C1034.745239,28.012407 1037.458740,29.681931 1040.827148,31.754351 
	C1038.742310,25.889311 1031.253906,21.708424 1026.120361,23.536955 
	C1028.239624,24.540129 1029.811523,25.284203 1032.031738,26.342886 
M1047.752197,73.105598 
	C1047.050415,73.103920 1045.819824,72.896568 1045.728149,73.132256 
	C1044.778076,75.574249 1049.632446,84.715546 1053.457886,86.500618 
	C1051.475586,81.734314 1049.798950,77.702972 1047.752197,73.105598 
M979.476196,125.164207 
	C979.476196,120.594971 979.476196,116.025734 979.476196,111.456497 
	C978.651184,111.477325 977.826172,111.498161 977.001160,111.518997 
	C977.223816,116.267334 977.444519,121.015793 977.725708,125.760674 
	C977.727051,125.783096 978.587097,125.754646 979.476196,125.164207 
M1078.876343,16.248219 
	C1078.185059,18.961273 1077.493896,21.674330 1076.542969,25.406492 
	C1081.332520,21.380535 1082.705322,15.967028 1080.381348,10.834076 
	C1079.771729,12.878683 1079.382568,14.183901 1078.876343,16.248219 
M921.396790,135.170975 
	C917.916321,135.170975 914.435852,135.170975 909.782776,135.170975 
	C914.581909,138.584488 919.825317,138.373581 921.396790,135.170975 
M886.195923,182.813278 
	C885.565796,183.258865 884.328918,183.898560 884.399719,184.119904 
	C885.070129,186.215195 891.875183,188.525986 895.062866,187.292267 
	C892.004944,185.711044 889.418518,184.373596 886.195923,182.813278 
M925.175049,219.513428 
	C923.938782,220.167160 922.702454,220.820892 921.466187,221.474640 
	C921.712097,222.032867 921.958008,222.591095 922.203918,223.149338 
	C925.575562,222.071655 928.947205,220.993973 932.318848,219.916290 
	C932.144836,219.297256 931.970825,218.678223 931.796814,218.059174 
	C929.824036,218.460175 927.851196,218.861160 925.175049,219.513428 
M975.296753,56.539845 
	C975.575867,57.424725 975.854980,58.309608 976.134155,59.194489 
	C976.768921,58.766907 977.403687,58.339325 978.038452,57.911743 
	C977.774475,54.737362 977.510437,51.562977 977.246399,48.388596 
	C976.550720,48.395439 975.855042,48.402283 975.159363,48.409122 
	C975.159363,50.860947 975.159363,53.312771 975.296753,56.539845 
M939.921326,172.814377 
	C939.484985,172.010956 939.048584,171.207535 938.612183,170.404114 
	C938.049500,170.594299 937.486877,170.784470 936.924194,170.974655 
	C937.541992,173.890366 938.159790,176.806076 938.777588,179.721786 
	C939.396667,179.625259 940.015686,179.528732 940.634705,179.432190 
	C940.416748,177.481033 940.198853,175.529861 939.921326,172.814377 
z"/>
<path fill="#3D2EDF" opacity="1.000000" stroke="none" 
	d="
M1095.964355,113.041679 
	C1095.976196,76.006889 1095.988037,38.972103 1096.000000,1.468657 
	C1103.354248,1.000000 1110.708496,1.000000 1118.701416,1.339602 
	C1122.197632,2.208713 1125.043701,2.812549 1127.914429,3.256259 
	C1158.130859,7.926816 1186.770874,17.171476 1213.252441,32.663151 
	C1237.577271,46.893227 1259.109985,64.442482 1276.993652,86.335922 
	C1281.583496,91.955048 1286.327026,97.448723 1291.000000,103.000000 
	C1291.000000,147.687561 1291.000000,192.375122 1290.531372,237.531494 
	C1266.697876,237.996002 1243.333130,237.991699 1219.972900,237.532440 
	C1219.672974,233.102112 1219.455811,229.117783 1219.049805,225.152786 
	C1215.488037,190.365967 1199.653076,162.137360 1172.633301,140.323273 
	C1150.363037,122.343590 1124.465576,113.802673 1095.927979,113.084793 
	C1095.932861,113.065361 1095.964478,113.041679 1095.964355,113.041679 
z"/>
<path fill="#433FEE" opacity="1.000000" stroke="none" 
	d="
M1219.968262,237.987396 
	C1243.333130,237.991699 1266.697876,237.996002 1290.531372,238.000153 
	C1291.000000,277.354218 1291.000000,316.708466 1290.637573,356.606171 
	C1269.608398,364.165680 1252.345093,376.398895 1238.077637,392.624603 
	C1225.412109,407.028412 1216.093018,423.574127 1211.982544,442.473999 
	C1209.665039,453.130157 1208.676880,464.075439 1206.615967,474.910583 
	C1169.158813,474.963654 1132.175659,474.996613 1095.136475,474.779663 
	C1095.045410,474.362762 1095.010498,474.195831 1094.981079,473.558441 
	C1095.026001,436.096588 1095.065430,399.105194 1095.559814,362.085571 
	C1102.966919,361.620300 1110.072144,361.954346 1116.844971,360.612213 
	C1145.575317,354.918976 1170.111816,341.724792 1189.424438,319.217255 
	C1209.530762,295.784637 1219.345337,268.639923 1219.997070,237.980423 
	C1220.000488,237.994080 1219.968262,237.987396 1219.968262,237.987396 
z"/>
<path fill="#433FEE" opacity="1.000000" stroke="none" 
	d="
M1095.468628,946.000000 
	C1095.033325,877.900269 1095.066528,809.800598 1095.509521,741.234558 
	C1101.567627,739.517944 1107.232544,738.337280 1112.861816,737.005249 
	C1136.945679,731.306396 1161.035034,725.629517 1185.085327,719.791626 
	C1191.699219,718.186096 1198.228638,716.187317 1204.707642,714.093079 
	C1207.432007,713.212524 1209.925293,711.616394 1212.971436,710.287476 
	C1217.957764,710.850952 1222.496216,711.472412 1226.869995,712.381531 
	C1213.456909,723.155273 1202.130981,735.588196 1191.666382,748.708191 
	C1173.598999,771.360474 1156.768555,794.895752 1143.564453,820.836670 
	C1139.034546,829.736206 1140.213135,839.009277 1147.197510,845.438293 
	C1154.515259,852.174133 1164.458618,852.762756 1172.950317,847.198242 
	C1196.158203,831.990356 1219.486450,816.965576 1242.637085,801.671570 
	C1258.868652,790.948486 1274.886719,779.902100 1291.000000,769.000000 
	C1291.000000,772.361267 1291.000000,775.722595 1290.744873,779.760498 
	C1288.310303,782.664246 1285.609009,784.574585 1284.033447,787.168701 
	C1271.003662,808.622803 1257.830933,830.003174 1245.395508,851.801697 
	C1232.789307,873.899658 1223.613770,897.429932 1218.630249,922.502136 
	C1217.791504,926.721863 1218.440186,930.164551 1221.877441,932.724854 
	C1225.182983,935.187073 1228.207031,933.461731 1231.051392,931.540100 
	C1251.040527,918.036072 1271.018433,904.515381 1291.000000,891.000000 
	C1291.000000,909.301331 1291.000000,927.602661 1291.000000,946.000000 
	C1225.979126,946.000000 1160.958130,946.000000 1095.468628,946.000000 
z"/>
<path fill="#524DEF" opacity="1.000000" stroke="none" 
	d="
M1095.192383,475.029572 
	C1132.175659,474.996613 1169.158813,474.963654 1207.074219,474.929993 
	C1235.671021,474.952881 1263.335449,474.976440 1291.000000,475.000000 
	C1291.000000,488.354218 1291.000000,501.708466 1290.712158,515.697998 
	C1278.914429,527.914001 1267.404541,539.494568 1255.668701,551.056763 
	C1255.442871,551.038391 1254.990723,551.007874 1254.819946,550.720093 
	C1240.671631,536.824341 1223.711304,531.509033 1204.760986,534.461609 
	C1164.938721,540.666138 1143.088867,582.038208 1160.248291,618.485168 
	C1162.979248,624.285950 1167.958740,629.028015 1171.931519,634.508545 
	C1172.025146,635.084656 1172.087280,635.411438 1171.806763,635.842285 
	C1169.796875,637.295593 1167.995850,638.509155 1166.485474,640.014282 
	C1148.098022,658.338074 1129.768311,676.719666 1111.388306,695.050659 
	C1106.327026,700.098328 1101.148315,705.028259 1095.797119,710.002686 
	C1095.570679,709.993042 1095.118408,709.973328 1095.093872,709.506958 
	C1095.021729,676.096252 1094.974121,643.151978 1094.946045,609.726318 
	C1094.954102,597.767761 1094.942749,586.290588 1094.927734,574.364868 
	C1094.951294,568.255981 1094.989624,562.595520 1095.003418,556.935120 
	C1095.070190,529.633240 1095.130127,502.331421 1095.192383,475.029572 
z"/>
<path fill="#3D2EDF" opacity="1.000000" stroke="none" 
	d="
M1096.023560,710.012329 
	C1101.148315,705.028259 1106.327026,700.098328 1111.388306,695.050659 
	C1129.768311,676.719666 1148.098022,658.338074 1166.485474,640.014282 
	C1167.995850,638.509155 1169.796875,637.295593 1172.060547,636.069214 
	C1185.309326,647.402161 1199.884155,652.709412 1216.975708,652.178345 
	C1245.976074,651.277344 1272.251587,625.122742 1272.995239,596.029297 
	C1273.440674,578.604614 1267.476685,563.822083 1255.894653,551.075195 
	C1267.404541,539.494568 1278.914429,527.914001 1290.712158,516.166687 
	C1291.000000,580.687561 1291.000000,645.375122 1290.531372,710.529785 
	C1272.879028,710.981628 1255.695435,710.966370 1238.026123,710.895630 
	C1234.038574,711.257996 1230.536499,711.675903 1227.034546,712.093872 
	C1222.496216,711.472412 1217.957764,710.850952 1212.548706,710.295288 
	C1204.462524,710.990906 1197.246948,711.620728 1189.700562,711.991455 
	C1187.252808,711.486023 1185.136230,711.029114 1183.019043,711.025269 
	C1156.281006,710.977295 1129.543091,711.018250 1102.805176,710.952515 
	C1100.543823,710.946960 1098.284058,710.339905 1096.023560,710.012329 
z"/>
<path fill="#2823BB" opacity="1.000000" stroke="none" 
	d="
M1070.531372,1.000012 
	C1069.945557,1.640215 1068.941650,2.729108 1067.829102,2.854730 
	C1042.291138,5.738334 1017.963379,12.771869 994.781982,23.843767 
	C972.702332,34.389450 952.683289,47.863728 934.721802,64.575462 
	C904.697083,92.511063 883.348755,125.906242 870.631226,164.795502 
	C864.773682,182.707489 860.692993,201.044708 859.937134,220.426880 
	C859.623047,218.264420 859.048096,215.660889 859.046204,213.056915 
	C858.995544,142.683731 859.003662,72.310524 859.000977,1.468657 
	C929.354248,1.000000 999.708496,1.000000 1070.531372,1.000012 
z"/>
<path fill="#433FEE" opacity="1.000000" stroke="none" 
	d="
M1238.511719,710.951111 
	C1255.695435,710.966370 1272.879028,710.981628 1290.531372,710.998413 
	C1291.000000,727.354248 1291.000000,743.708435 1290.644775,760.548218 
	C1288.035889,762.435486 1285.729004,763.759216 1283.536255,765.250793 
	C1245.658081,791.018433 1207.812012,816.833435 1169.908569,842.563904 
	C1163.730591,846.757751 1156.499390,846.274780 1151.460938,841.761108 
	C1146.336914,837.170776 1145.168091,830.233032 1148.797363,823.521484 
	C1166.631348,790.542053 1187.427856,759.672852 1214.263794,733.239014 
	C1222.080322,725.539551 1230.414673,718.365784 1238.511719,710.951111 
z"/>
<path fill="#3D2EDF" opacity="1.000000" stroke="none" 
	d="
M1291.000000,474.531311 
	C1263.335449,474.976440 1235.671021,474.952881 1207.548096,474.909912 
	C1208.676880,464.075439 1209.665039,453.130157 1211.982544,442.473999 
	C1216.093018,423.574127 1225.412109,407.028412 1238.077637,392.624603 
	C1252.345093,376.398895 1269.608398,364.165680 1290.637573,357.074829 
	C1291.000000,396.020905 1291.000000,435.041779 1291.000000,474.531311 
z"/>
<path fill="#2823BB" opacity="1.000000" stroke="none" 
	d="
M1291.000000,102.531342 
	C1286.327026,97.448723 1281.583496,91.955048 1276.993652,86.335922 
	C1259.109985,64.442482 1237.577271,46.893227 1213.252441,32.663151 
	C1186.770874,17.171476 1158.130859,7.926816 1127.914429,3.256259 
	C1125.043701,2.812549 1122.197632,2.208713 1119.170166,1.339602 
	C1176.241699,1.000000 1233.483276,1.000000 1291.000000,1.000000 
	C1291.000000,34.687061 1291.000000,68.374870 1291.000000,102.531342 
z"/>
<path fill="#4440EE" opacity="1.000000" stroke="none" 
	d="
M1291.000000,791.000000 
	C1291.000000,822.354248 1291.000000,853.708435 1290.706177,885.694824 
	C1270.456543,899.832092 1250.522949,913.370056 1230.500244,926.775391 
	C1229.007568,927.774780 1226.877808,927.822632 1225.044189,928.312805 
	C1224.730957,926.285095 1223.713135,924.059631 1224.217407,922.261230 
	C1227.845703,909.325439 1230.931763,896.144592 1235.793701,883.666321 
	C1247.039429,854.803345 1264.585205,829.396667 1281.630249,803.778320 
	C1284.552979,799.385437 1287.866821,795.252869 1291.000000,791.000000 
z"/>
<path fill="#8A8AFB" opacity="1.000000" stroke="none" 
	d="
M1238.026123,710.895630 
	C1230.414673,718.365784 1222.080322,725.539551 1214.263794,733.239014 
	C1187.427856,759.672852 1166.631348,790.542053 1148.797363,823.521484 
	C1145.168091,830.233032 1146.336914,837.170776 1151.460938,841.761108 
	C1156.499390,846.274780 1163.730591,846.757751 1169.908569,842.563904 
	C1207.812012,816.833435 1245.658081,791.018433 1283.536255,765.250793 
	C1285.729004,763.759216 1288.035889,762.435486 1290.644775,761.016846 
	C1291.000000,763.370544 1291.000000,765.741150 1291.000000,768.555908 
	C1274.886719,779.902100 1258.868652,790.948486 1242.637085,801.671570 
	C1219.486450,816.965576 1196.158203,831.990356 1172.950317,847.198242 
	C1164.458618,852.762756 1154.515259,852.174133 1147.197510,845.438293 
	C1140.213135,839.009277 1139.034546,829.736206 1143.564453,820.836670 
	C1156.768555,794.895752 1173.598999,771.360474 1191.666382,748.708191 
	C1202.130981,735.588196 1213.456909,723.155273 1226.869995,712.381531 
	C1230.536499,711.675903 1234.038574,711.257996 1238.026123,710.895630 
z"/>
<path fill="#898AFB" opacity="1.000000" stroke="none" 
	d="
M1291.000000,790.541931 
	C1287.866821,795.252869 1284.552979,799.385437 1281.630249,803.778320 
	C1264.585205,829.396667 1247.039429,854.803345 1235.793701,883.666321 
	C1230.931763,896.144592 1227.845703,909.325439 1224.217407,922.261230 
	C1223.713135,924.059631 1224.730957,926.285095 1225.044189,928.312805 
	C1226.877808,927.822632 1229.007568,927.774780 1230.500244,926.775391 
	C1250.522949,913.370056 1270.456543,899.832092 1290.706177,886.163513 
	C1291.000000,887.388916 1291.000000,888.777771 1291.000000,890.583374 
	C1271.018433,904.515381 1251.040527,918.036072 1231.051392,931.540100 
	C1228.207031,933.461731 1225.182983,935.187073 1221.877441,932.724854 
	C1218.440186,930.164551 1217.791504,926.721863 1218.630249,922.502136 
	C1223.613770,897.429932 1232.789307,873.899658 1245.395508,851.801697 
	C1257.830933,830.003174 1271.003662,808.622803 1284.033447,787.168701 
	C1285.609009,784.574585 1288.310303,782.664246 1290.744873,780.218506 
	C1291.000000,783.361267 1291.000000,786.722595 1291.000000,790.541931 
z"/>
<path fill="#2823BB" opacity="1.000000" stroke="none" 
	d="
M1079.562500,0.999997 
	C1077.862793,1.150709 1075.725464,1.301422 1073.294189,1.226068 
	C1075.041626,1.000000 1077.083374,1.000000 1079.562500,0.999997 
z"/>
<path fill="#433FEE" opacity="1.000000" stroke="none" 
	d="
M1094.931396,574.813354 
	C1094.942749,586.290588 1094.954102,597.767761 1094.752930,610.034424 
	C1084.890625,664.165283 1047.624512,700.965515 994.075195,710.032837 
	C949.367249,710.348877 904.659302,710.664917 859.484741,710.974243 
	C859.016602,632.575745 859.015076,554.183960 859.484619,475.331543 
	C901.245178,474.855377 942.534668,474.839844 984.259521,474.858093 
	C985.858521,474.898834 987.022156,474.905792 988.606995,474.919495 
	C1030.785278,479.660248 1061.727295,500.581879 1082.102905,537.228088 
	C1088.630737,548.968689 1092.218994,561.750854 1094.931396,574.813354 
M1003.366516,535.996155 
	C994.793945,535.459839 985.948425,533.286682 977.694641,534.662781 
	C935.756836,541.654724 915.075012,586.744141 936.318787,623.617249 
	C955.248047,656.472961 1003.669373,662.086548 1029.675781,634.559692 
	C1059.954590,602.510681 1047.573364,549.605286 1003.366516,535.996155 
z"/>
<path fill="#3D2EDF" opacity="1.000000" stroke="none" 
	d="
M988.185852,474.912781 
	C987.022156,474.905792 985.858521,474.898834 984.296143,474.441193 
	C982.303711,463.162231 981.675537,452.084534 978.953857,441.547607 
	C965.056824,387.744965 914.515747,349.442383 859.007263,350.022614 
	C859.006775,312.987915 859.006287,275.953247 859.009644,238.447205 
	C896.078552,237.933334 933.143738,237.890808 970.674194,237.857040 
	C971.139526,237.865799 971.030334,237.933731 971.028137,238.387787 
	C972.291809,308.649170 1028.945557,362.755005 1095.026367,362.028473 
	C1095.052856,362.056702 1095.104858,362.113800 1095.104858,362.113800 
	C1095.065430,399.105194 1095.026001,436.096588 1094.515015,473.554321 
	C1061.024536,474.021057 1028.005493,474.003937 994.986572,474.060089 
	C992.719177,474.063934 990.452759,474.615784 988.185852,474.912781 
z"/>
<path fill="#2823BB" opacity="1.000000" stroke="none" 
	d="
M859.006104,350.489014 
	C914.515747,349.442383 965.056824,387.744965 978.953857,441.547607 
	C981.675537,452.084534 982.303711,463.162231 983.860840,474.407410 
	C942.534668,474.839844 901.245178,474.855377 859.489685,474.852509 
	C859.017456,433.541199 859.011169,392.248322 859.006104,350.489014 
z"/>
<path fill="#FAFAFE" opacity="1.000000" stroke="none" 
	d="
M580.663574,509.637421 
	C591.869446,500.958374 602.398132,502.015747 611.965942,513.042786 
	C612.170837,510.194702 612.339905,507.844360 612.535400,505.126404 
	C617.621399,505.126404 622.661316,505.126404 628.266052,505.126404 
	C628.266052,507.239929 628.266113,509.350250 628.266052,511.460541 
	C628.265991,528.601990 628.210327,545.743713 628.289001,562.884827 
	C628.329468,571.693481 624.351624,578.035156 616.417908,581.392517 
	C605.333374,586.083374 594.069885,586.157593 583.137329,580.666260 
	C578.662476,578.418579 575.542053,574.815308 574.030579,569.004272 
	C578.492493,568.340088 582.800659,567.586365 587.140686,567.146606 
	C588.017395,567.057800 589.211731,567.973633 589.924072,568.738586 
	C594.530701,573.685547 600.364075,574.116333 605.991333,571.959717 
	C608.566040,570.973022 611.076477,567.679871 611.936340,564.911133 
	C612.959229,561.617310 612.177063,557.762878 612.177063,555.194885 
	C607.413818,557.231873 602.636414,560.381226 597.474365,561.253174 
	C586.567200,563.095642 576.997925,556.273315 573.872986,545.010193 
	C570.362549,532.357727 571.267761,520.293762 580.663574,509.637421 
M589.587158,540.419250 
	C592.337952,547.386963 595.778076,549.758118 602.211365,549.120483 
	C607.662842,548.580139 611.485779,544.696167 612.016052,537.762024 
	C612.361450,533.246460 611.956970,528.469299 610.795776,524.099670 
	C609.618408,519.669189 606.035400,517.004822 601.147034,516.814209 
	C596.081787,516.616699 591.925232,518.859741 590.747070,523.604553 
	C589.468445,528.754150 589.698120,534.278259 589.587158,540.419250 
z"/>
<path fill="#F9F9FE" opacity="1.000000" stroke="none" 
	d="
M585.862427,445.760223 
	C576.578979,457.795197 564.067993,457.930389 551.207031,455.721069 
	C543.281006,454.359528 537.045471,450.173248 534.218201,441.088501 
	C538.902527,440.429047 543.231873,439.704529 547.591064,439.304718 
	C548.443359,439.226532 549.346680,440.558990 550.337402,440.979706 
	C553.743469,442.426147 557.125183,444.664368 560.649902,444.949615 
	C568.942078,445.620850 572.676392,441.735931 572.858582,433.521210 
	C572.917358,430.870270 572.867798,428.216919 572.867798,426.533112 
	C568.473999,428.759308 564.139832,431.999420 559.301331,433.190002 
	C549.138489,435.690826 539.056702,429.828735 535.114746,420.057800 
	C531.762695,411.749084 531.866272,403.289703 533.747253,394.589355 
	C537.423706,377.584320 558.613892,368.131470 572.320129,384.941559 
	C572.601318,382.028473 572.824158,379.720276 573.072144,377.151184 
	C578.168640,377.151184 583.091553,377.151184 588.343811,377.151184 
	C588.470703,378.133057 588.695435,379.066223 588.696472,379.999695 
	C588.716675,398.310242 588.849243,416.622772 588.589478,434.929688 
	C588.539673,438.442596 586.926575,441.933380 585.862427,445.760223 
M564.577332,389.499512 
	C559.413818,388.168823 554.802124,389.024384 551.950134,393.828766 
	C547.747131,400.908997 547.640869,408.465576 551.271973,415.741119 
	C554.612915,422.435272 563.961060,423.385223 569.064270,418.044586 
	C574.824951,412.015869 574.408752,392.795349 564.577332,389.499512 
z"/>
<path fill="#FBFBFE" opacity="1.000000" stroke="none" 
	d="
M78.970581,539.000000 
	C78.984116,521.342773 78.996368,504.185516 79.020943,487.028290 
	C79.021416,486.705200 79.167847,486.382263 79.336647,485.686157 
	C96.134232,485.686157 113.021454,485.686157 130.307693,485.686157 
	C130.307693,489.950745 130.307693,494.162689 130.307693,498.837555 
	C118.796280,498.837555 107.373291,498.837555 95.580231,498.837555 
	C95.580231,505.001373 95.580231,510.719940 95.580231,516.942993 
	C106.044479,516.942993 116.619171,516.942993 127.580307,516.942993 
	C127.580307,521.656799 127.580307,525.884277 127.580307,530.755127 
	C116.966255,530.755127 106.234283,530.755127 95.361710,530.755127 
	C95.361710,536.862366 95.361710,542.334167 95.361710,548.489624 
	C107.028877,548.489624 118.580467,548.489624 130.466003,548.489624 
	C130.466003,553.240479 130.466003,557.319824 130.466003,561.820190 
	C113.527916,561.820190 96.489372,561.820190 78.970581,561.820190 
	C78.970581,554.405884 78.970581,546.952942 78.970581,539.000000 
z"/>
<path fill="#FAFAFE" opacity="1.000000" stroke="none" 
	d="
M326.399170,370.644897 
	C328.304230,375.200989 329.998779,379.454529 332.128357,384.800049 
	C326.079285,384.800049 321.341919,384.924927 316.622650,384.688629 
	C315.740112,384.644440 314.462585,383.295898 314.161499,382.307404 
	C312.046021,375.362000 307.084808,371.970947 300.246429,371.251709 
	C292.627197,370.450348 286.184021,373.168671 282.574158,380.014404 
	C277.019348,390.548523 277.058228,401.563812 282.494385,412.135925 
	C285.841461,418.645172 291.923431,421.337067 299.183167,420.937653 
	C306.042633,420.560272 311.201111,417.582886 313.958221,410.914246 
	C314.446655,409.732880 316.070038,408.333557 317.255219,408.249786 
	C321.704071,407.935181 326.188507,408.123779 330.665955,408.123779 
	C330.319183,421.082123 318.878632,432.768585 304.880829,434.874359 
	C282.255554,438.278076 265.483185,425.814575 262.527405,403.138550 
	C261.258179,393.401367 262.127411,383.796631 266.773163,374.930725 
	C278.605652,352.349792 310.874054,349.895325 326.399170,370.644897 
z"/>
<path fill="#F9F9FE" opacity="1.000000" stroke="none" 
	d="
M414.241150,548.979553 
	C414.241180,527.694031 414.241180,506.904999 414.241180,485.712036 
	C419.495911,485.712036 424.378265,485.712036 429.730774,485.712036 
	C429.730774,494.831726 429.730774,503.910919 429.730774,514.028442 
	C430.993561,512.853394 431.583191,512.453674 431.980347,511.912598 
	C436.855347,505.270752 444.511169,502.460388 452.667175,504.355316 
	C460.640839,506.207886 466.628815,511.804108 467.044708,520.218933 
	C467.724762,533.978027 467.228577,547.795227 467.228577,561.915283 
	C462.384613,561.915283 457.312347,561.915283 451.686584,561.915283 
	C451.686584,552.563965 451.695648,543.296143 451.680237,534.028381 
	C451.676361,531.699463 451.769440,529.351196 451.513855,527.045532 
	C450.817810,520.765625 447.272308,517.345276 441.617432,517.264648 
	C435.695343,517.180176 431.001495,521.145264 430.735229,527.365662 
	C430.351013,536.340271 430.563660,545.340454 430.526855,554.329773 
	C430.516785,556.790466 430.525360,559.251282 430.525360,561.969482 
	C424.980225,561.969482 419.895782,561.969482 414.241150,561.969482 
	C414.241150,557.691772 414.241150,553.583923 414.241150,548.979553 
z"/>
<path fill="#FAF9FE" opacity="1.000000" stroke="none" 
	d="
M344.549072,434.501160 
	C343.466217,433.360809 342.280029,432.243744 342.275909,431.122284 
	C342.187286,407.131470 342.229980,383.140137 342.262360,359.148956 
	C342.262787,358.839783 342.460052,358.530853 342.677032,357.894531 
	C347.489685,357.894531 352.413452,357.894531 357.852478,357.894531 
	C357.852478,367.077698 357.852478,376.132996 357.852478,386.877869 
	C362.837555,379.100006 368.627289,375.748322 376.395142,376.024170 
	C386.152649,376.370636 393.645660,381.963287 394.851532,391.664093 
	C395.954468,400.536896 395.613556,409.594543 395.808044,418.572906 
	C395.918945,423.692596 395.828094,428.816650 395.828094,434.233643 
	C390.291443,434.233643 385.224731,434.233643 379.641663,434.233643 
	C379.641663,427.178131 379.641205,420.388733 379.641846,413.599335 
	C379.642181,409.767334 379.677246,405.934998 379.638855,402.103394 
	C379.554504,393.680420 376.160950,389.481506 369.470642,389.457184 
	C362.709625,389.432587 358.497345,394.011749 358.333740,402.076508 
	C358.151276,411.069733 358.284363,420.069366 358.280365,429.066193 
	C358.279633,430.695648 358.280243,432.325134 358.280243,434.522430 
	C353.553314,434.522430 349.274780,434.522430 344.549072,434.501160 
z"/>
<path fill="#FAFAFE" opacity="1.000000" stroke="none" 
	d="
M321.924774,550.286499 
	C319.209229,542.539551 316.590149,535.175598 314.007385,527.798889 
	C311.424164,520.420959 308.877258,513.030273 306.023712,504.807404 
	C311.400360,504.807404 316.480896,504.617950 321.521881,504.979706 
	C322.444214,505.045929 323.574677,507.247925 323.982910,508.646790 
	C327.291168,519.983154 330.447662,531.363892 333.659119,542.728577 
	C333.902679,543.590454 334.213074,544.433350 335.570496,545.336243 
	C337.359894,539.220093 339.172333,533.110596 340.932220,526.985962 
	C342.723175,520.753296 344.586060,514.536865 346.167542,508.250427 
	C346.867523,505.468140 348.187286,504.510498 351.037537,504.682770 
	C355.163879,504.932159 359.316437,504.746613 364.239502,504.746613 
	C361.546539,512.566895 359.118286,519.721375 356.619904,526.851257 
	C352.054871,539.878906 347.370331,552.865295 342.879333,565.918335 
	C337.550690,581.405945 327.485718,586.705017 310.554871,582.106201 
	C311.639771,578.240051 312.726074,574.369019 313.879547,570.258606 
	C315.488800,570.502502 316.758698,570.779968 318.042053,570.874756 
	C323.536926,571.280518 327.291016,566.821899 325.758606,561.524597 
	C324.696442,557.852783 323.289825,554.280579 321.924774,550.286499 
z"/>
<path fill="#F9F9FE" opacity="1.000000" stroke="none" 
	d="
M439.221497,376.625732 
	C452.552765,379.895050 456.948700,385.392578 456.950104,398.465607 
	C456.951324,409.957306 456.922272,421.449036 456.889343,432.940704 
	C456.888458,433.251770 456.689026,433.562256 456.468262,434.204346 
	C451.837616,434.204346 447.088867,434.204346 442.011322,434.204346 
	C441.780640,432.229919 441.557983,430.324005 441.218842,427.421295 
	C435.213257,435.169220 427.611389,436.264648 419.357269,434.992645 
	C411.296143,433.750305 405.951904,427.922302 405.243011,419.809174 
	C404.553864,411.922180 408.561005,405.203979 416.320038,402.910187 
	C421.848419,401.275787 427.737091,400.888519 433.433899,399.784149 
	C436.683563,399.154205 440.996948,399.598267 440.768341,394.327057 
	C440.596313,390.359558 437.114532,387.707245 432.134338,388.035126 
	C429.901703,388.182159 427.526093,388.879761 425.588531,389.982880 
	C423.826630,390.985992 422.659241,394.031403 421.073883,394.153625 
	C416.827393,394.480988 412.497253,393.723419 407.623291,393.352966 
	C408.371155,387.898895 410.973785,384.068817 414.950653,381.190033 
	C422.142548,375.983917 430.310669,375.303406 439.221497,376.625732 
M439.973145,418.087952 
	C440.409576,414.915863 440.846039,411.743774 441.318024,408.313416 
	C435.636200,409.420532 430.716522,410.118042 425.951813,411.394104 
	C422.438507,412.335022 420.311951,414.871521 420.933167,418.842163 
	C421.525146,422.626221 424.265167,423.924561 427.669891,424.204254 
	C432.633209,424.612000 436.825592,423.215973 439.973145,418.087952 
z"/>
<path fill="#F9F9FE" opacity="1.000000" stroke="none" 
	d="
M236.910400,549.089478 
	C241.836349,541.619934 248.602249,546.528992 255.077789,545.198120 
	C253.942062,552.090271 250.593094,556.665039 245.246597,559.380981 
	C233.918304,565.135498 222.206039,565.585266 211.602219,558.203186 
	C200.088318,550.187500 199.161407,537.927612 201.472183,525.396301 
	C204.096008,511.167236 215.842728,503.032104 231.268616,504.037445 
	C244.619156,504.907532 253.943115,514.382202 255.146698,528.380066 
	C255.397598,531.298218 255.429108,534.235168 255.584930,537.676147 
	C242.292419,537.676147 229.705719,537.676147 216.928268,537.676147 
	C216.414047,542.853516 217.982483,546.679932 221.942657,549.182312 
	C226.692047,552.183411 231.670929,552.137451 236.910400,549.089478 
M218.937256,520.648315 
	C218.067902,522.659424 217.198547,524.670532 216.146591,527.104126 
	C224.758560,527.104126 232.408691,527.104126 240.229904,527.104126 
	C239.908737,521.833557 237.601395,518.411865 233.106781,516.815430 
	C227.951324,514.984192 223.279083,516.002014 218.937256,520.648315 
z"/>
<path fill="#FAF9FE" opacity="1.000000" stroke="none" 
	d="
M504.868713,394.599243 
	C501.746033,389.587952 497.377167,388.549805 492.497223,390.054596 
	C487.382294,391.631927 485.284485,395.753265 485.239136,400.848083 
	C485.141449,411.823242 485.209076,422.799927 485.209076,434.153809 
	C479.812683,434.153809 474.769989,434.153809 469.401611,434.153809 
	C469.401611,415.116760 469.401611,396.215088 469.401611,377.085205 
	C474.282196,377.085205 479.068817,377.085205 484.259857,377.085205 
	C484.482300,379.685394 484.698517,382.212402 485.005402,385.799194 
	C489.585114,378.991425 495.254547,375.925629 502.607086,376.028900 
	C513.358093,376.179932 521.457947,383.256317 521.893066,394.275696 
	C522.411499,407.404205 522.015137,420.568848 522.015137,434.125305 
	C516.820129,434.125305 511.773407,434.125305 506.053101,434.125305 
	C506.053101,423.850983 506.124542,413.594543 506.006104,403.340332 
	C505.973877,400.550018 505.369446,397.766266 504.868713,394.599243 
z"/>
<path fill="#FAF9FE" opacity="1.000000" stroke="none" 
	d="
M629.680481,435.425476 
	C618.225037,435.765198 608.487061,432.910004 602.976562,422.576508 
	C597.011353,411.390259 597.086548,399.717926 603.379883,388.654846 
	C609.228821,378.372925 621.609497,373.871033 633.762146,376.823242 
	C645.740112,379.733063 652.956360,388.596222 653.866882,401.649963 
	C654.039307,404.121490 653.891663,406.615326 653.891663,409.681946 
	C640.944641,409.681946 628.205994,409.681946 615.528809,409.681946 
	C614.971985,415.901978 616.966858,419.769165 621.566406,422.072144 
	C626.306519,424.445465 633.195557,424.287628 635.930542,420.437592 
	C638.698853,416.540649 641.857422,416.946320 645.469666,417.253204 
	C647.932190,417.462402 650.391296,417.711060 652.845825,417.941498 
	C652.027100,427.843506 643.877869,434.019897 629.680481,435.425476 
M615.101135,398.684692 
	C622.798889,399.217468 630.496643,399.750214 638.239929,400.286133 
	C638.255981,393.191895 635.049988,389.327118 629.170837,388.305054 
	C622.569946,387.157532 617.393860,390.678314 615.101135,398.684692 
z"/>
<path fill="#FAFAFE" opacity="1.000000" stroke="none" 
	d="
M144.766571,433.889526 
	C129.095917,438.117889 116.107422,433.652252 109.542282,422.017975 
	C103.501305,411.312592 104.912811,394.145813 112.567131,385.229706 
	C120.205185,376.332520 133.862350,373.355652 146.038559,378.304199 
	C156.811020,382.682343 161.210464,391.580994 162.420486,402.583740 
	C163.982208,416.784576 157.752625,428.127869 144.766571,433.889526 
M124.398979,416.790405 
	C126.939209,421.246246 130.663940,423.744171 135.875900,422.890839 
	C141.311462,422.000916 144.610748,418.141418 145.012405,413.056152 
	C145.469391,407.270386 145.137070,401.254395 144.008514,395.564423 
	C143.105133,391.009705 139.254257,388.557037 134.321411,388.548950 
	C129.226349,388.540558 125.857246,391.086578 124.014305,395.693909 
	C121.301132,402.476807 121.462440,409.288910 124.398979,416.790405 
z"/>
<path fill="#FCFBFE" opacity="1.000000" stroke="none" 
	d="
M524.916504,528.443359 
	C524.897644,539.850708 524.897644,550.804443 524.897644,561.992676 
	C519.468567,561.992676 514.517517,561.992676 509.200775,561.992676 
	C509.200775,543.032532 509.200775,524.160095 509.200775,505.018097 
	C514.031799,505.018097 518.801331,505.018097 523.930847,505.018097 
	C523.930847,507.751221 523.930847,510.370911 523.930847,513.874817 
	C525.087402,512.866272 525.730652,512.499878 526.104065,511.950287 
	C531.198059,504.453461 538.633423,502.816498 546.800415,504.433380 
	C555.203003,506.096985 560.742981,511.774689 561.175293,520.225281 
	C561.879211,533.984131 561.365234,547.805237 561.365234,561.917847 
	C556.585571,561.917847 551.507141,561.917847 545.915283,561.917847 
	C545.915283,552.250000 545.915649,542.635437 545.914917,533.020874 
	C545.914795,531.688660 545.947815,530.354980 545.899780,529.024414 
	C545.631897,521.605957 542.397583,517.656677 536.293701,517.260986 
	C530.165771,516.863647 526.158020,520.649353 524.916504,528.443359 
z"/>
<path fill="#F8F8FD" opacity="1.000000" stroke="none" 
	d="
M165.873810,362.350800 
	C165.752350,359.451538 165.719147,357.462860 169.347137,357.492340 
	C188.482132,357.647797 207.618927,357.574615 226.755081,357.606140 
	C227.391525,357.607178 228.027512,357.880219 228.801483,358.058136 
	C228.801483,362.278381 228.801483,366.408966 228.801483,370.990051 
	C221.246674,370.990051 213.822403,370.990051 205.856537,370.990051 
	C205.856537,392.147369 205.856537,412.868134 205.856537,434.063965 
	C200.150772,434.063965 194.979645,434.063965 189.282898,434.063965 
	C189.282898,413.164978 189.282898,392.438568 189.282898,371.143524 
	C183.174942,371.143524 177.553619,370.841278 171.981766,371.236389 
	C167.278931,371.569855 165.038651,370.234711 165.854599,365.270538 
	C165.987747,364.460419 165.873413,363.609589 165.873810,362.350800 
z"/>
<path fill="#FAF9FE" opacity="1.000000" stroke="none" 
	d="
M665.675964,427.268250 
	C664.087891,424.243988 662.735168,421.493011 660.919067,417.799530 
	C666.485962,417.477020 670.896851,417.094452 675.310120,417.064697 
	C676.283142,417.058136 677.535339,418.103394 678.196716,419.003845 
	C681.582397,423.612732 687.538696,425.540771 692.736267,422.938934 
	C694.523193,422.044373 696.709351,419.631042 696.641418,417.997620 
	C696.573181,416.355408 694.193176,413.987000 692.358032,413.399567 
	C687.469299,411.834778 682.296082,411.187195 677.296082,409.934845 
	C670.231079,408.165283 664.683289,404.511810 663.261719,396.772888 
	C661.930542,389.525879 665.723633,382.361237 672.713135,379.171356 
	C682.120972,374.877777 691.801392,374.731934 701.312500,378.730316 
	C707.339905,381.264160 710.971924,385.983185 712.039795,393.389587 
	C707.440674,393.645844 703.188049,393.993317 698.933228,394.022461 
	C698.125000,394.028046 697.143860,392.897430 696.522888,392.078369 
	C693.301758,387.829956 687.547058,386.181885 682.807312,388.707153 
	C681.283203,389.519165 679.517456,391.505188 679.471558,393.003326 
	C679.426331,394.481140 681.103394,396.710846 682.583496,397.386322 
	C685.405029,398.673889 688.618225,399.114319 691.679688,399.861847 
	C695.068420,400.689270 698.547302,401.230621 701.847656,402.318817 
	C707.475525,404.174438 712.095703,407.274902 713.094788,413.748138 
	C714.196106,420.883850 711.532104,426.425568 705.791321,430.644196 
	C696.406433,437.540863 674.015015,437.647400 665.675964,427.268250 
z"/>
<path fill="#FBFBFE" opacity="1.000000" stroke="none" 
	d="
M167.773682,544.457703 
	C171.558517,532.420959 175.142807,520.652283 178.462173,508.809448 
	C179.323502,505.736389 180.629837,504.423279 183.939484,504.676544 
	C187.902084,504.979736 191.905624,504.748077 196.691391,504.748077 
	C194.531097,511.106598 192.571365,516.990234 190.534134,522.846863 
	C186.381470,534.785095 182.121048,546.686462 178.062714,558.656494 
	C177.197113,561.209534 176.100082,562.283875 173.193405,562.319519 
	C158.831863,562.495667 158.771942,562.619446 154.035660,549.242065 
	C148.888672,534.704651 143.870773,520.121521 138.518997,504.761597 
	C143.914200,504.761597 148.701263,504.480133 153.413437,504.949768 
	C154.668732,505.074890 156.254929,507.329865 156.735306,508.898987 
	C159.947983,519.393433 162.891205,529.970215 165.954391,540.510803 
	C166.367874,541.933655 166.963257,543.303650 167.773682,544.457703 
z"/>
<path fill="#FCFBFE" opacity="1.000000" stroke="none" 
	d="
M403.315796,558.304688 
	C402.726807,559.871338 402.307129,561.787476 401.359985,562.098816 
	C386.644623,566.935303 376.072296,559.243591 376.065735,543.865601 
	C376.061981,535.071289 376.065063,526.277039 376.065063,517.109131 
	C373.564087,516.913330 371.322296,516.737793 368.630981,516.527100 
	C368.630981,512.801941 368.630981,509.089081 368.630981,504.982849 
	C370.780182,504.852631 373.052307,504.714966 375.801514,504.548370 
	C375.801514,500.249176 375.801514,496.027893 375.801514,491.380005 
	C381.299042,491.380005 386.332520,491.380005 391.877441,491.380005 
	C391.877441,495.542328 391.877441,499.787537 391.877441,504.631958 
	C395.744202,504.631958 399.133240,504.631958 402.736694,504.631958 
	C402.736694,508.838562 402.736694,512.439331 402.736694,516.553711 
	C399.308441,516.553711 396.053467,516.553711 392.197906,516.553711 
	C392.197906,526.626099 391.827484,536.220337 392.339966,545.767151 
	C392.636627,551.293762 397.797119,549.759399 401.598389,550.024231 
	C402.170319,552.771240 402.705048,555.339539 403.315796,558.304688 
z"/>
<path fill="#FBFBFE" opacity="1.000000" stroke="none" 
	d="
M275.788330,562.234985 
	C272.357086,562.235107 269.379791,562.235107 266.043884,562.235107 
	C266.043884,543.067993 266.043884,524.217041 266.043884,505.055969 
	C270.980316,505.055969 275.879608,505.055969 281.050140,505.055969 
	C281.261841,507.408875 281.462067,509.634033 281.765198,513.002930 
	C286.487976,505.426514 292.328094,502.436188 300.500793,504.572266 
	C300.500793,509.075867 300.500793,513.480835 300.500793,517.934509 
	C298.384521,517.934509 296.438477,517.936829 294.492462,517.934082 
	C286.715485,517.923035 281.975464,522.440430 281.908691,530.189087 
	C281.818481,540.656555 281.886261,551.125427 281.886261,562.234802 
	C279.789185,562.234802 278.015747,562.234802 275.788330,562.234985 
z"/>
<path fill="#FDFDFF" opacity="1.000000" stroke="none" 
	d="
M95.194580,416.998535 
	C95.194580,422.968781 95.194580,428.439484 95.194580,434.210449 
	C89.711655,434.210449 84.630714,434.210449 79.261505,434.210449 
	C79.261505,408.838531 79.261505,383.622070 79.261505,357.994476 
	C84.403023,357.994476 89.583481,357.994476 95.194580,357.994476 
	C95.194580,377.611359 95.194580,397.055176 95.194580,416.998535 
z"/>
<path fill="#FBFBFE" opacity="1.000000" stroke="none" 
	d="
M480.143799,524.000977 
	C480.158447,517.852905 480.169861,512.204529 480.196014,506.556213 
	C480.197510,506.232910 480.319366,505.910126 480.470642,505.168213 
	C485.403503,505.168213 490.431946,505.168213 495.829346,505.168213 
	C495.829346,523.915710 495.829346,542.751160 495.829346,561.912231 
	C490.731781,561.912231 485.674774,561.912231 480.143799,561.912231 
	C480.143799,549.341858 480.143799,536.921326 480.143799,524.000977 
z"/>
<path fill="#B0ACF6" opacity="1.000000" stroke="none" 
	d="
M275.203033,852.730591 
	C276.775879,853.663574 278.115570,854.818604 279.413025,854.772888 
	C280.902679,854.720581 283.153351,853.966980 283.650513,852.871948 
	C284.570007,850.846863 283.650146,849.286438 280.867462,848.885498 
	C279.827789,848.735779 279.090515,846.487244 277.603790,844.293152 
	C282.492737,844.293152 285.754272,844.293152 289.896210,844.293152 
	C289.896210,848.388245 290.042480,852.465271 289.786285,856.516846 
	C289.727325,857.449646 288.453857,858.729065 287.456635,859.110840 
	C280.587341,861.741333 272.366516,859.824097 269.277100,855.062012 
	C265.784058,849.677795 266.317657,840.272400 270.367157,835.848206 
	C274.711487,831.101868 282.526886,830.132568 289.460297,833.695435 
	C288.934174,834.969116 288.395905,836.272156 287.857635,837.575195 
	C287.605652,837.073547 287.353699,836.571838 287.101715,836.070129 
	C283.108307,837.292419 278.247467,837.502197 275.340515,839.992676 
	C271.685425,843.123962 272.541962,848.160706 275.203033,852.730591 
z"/>
<path fill="#B0ACF6" opacity="1.000000" stroke="none" 
	d="
M240.099792,840.819336 
	C238.895187,843.503418 237.706848,845.783325 236.136902,848.795288 
	C237.991714,851.666809 240.277298,855.205322 242.770584,859.065308 
	C233.041336,862.229187 234.263550,850.531860 227.506851,848.967346 
	C227.338898,851.744934 227.534592,854.214233 226.919571,856.461609 
	C226.571121,857.734985 224.892731,858.644409 223.813324,859.717712 
	C222.867569,858.690796 221.132401,857.686707 221.101822,856.633179 
	C220.871384,848.691284 220.976089,840.739624 220.976089,832.921448 
	C231.889984,829.728394 239.144989,832.681152 240.099792,840.819336 
M233.967255,841.314941 
	C233.975418,836.301147 230.748062,837.006226 227.491074,837.354797 
	C227.491074,839.712402 227.491074,841.739502 227.491074,844.925781 
	C230.099319,843.732666 231.901413,842.908325 233.967255,841.314941 
z"/>
<path fill="#AEAAF5" opacity="1.000000" stroke="none" 
	d="
M165.364304,854.700317 
	C166.765610,855.688477 167.740692,856.668030 168.715790,857.647583 
	C167.617096,858.351929 166.534042,859.083130 165.407578,859.739868 
	C165.158051,859.885315 164.754929,859.761963 164.422806,859.771790 
	C152.521408,860.124207 152.521423,860.124390 152.521576,848.217224 
	C152.521637,842.940186 152.521591,837.663208 152.521591,831.946411 
	C157.512985,831.946411 161.815308,831.820435 166.098862,832.047791 
	C167.004593,832.095825 167.841736,833.436157 168.710464,834.181030 
	C167.845673,835.099182 167.128906,836.499268 166.080933,836.821167 
	C164.556549,837.289612 162.719971,836.699951 161.159454,837.108093 
	C160.208893,837.356628 158.792160,838.736328 158.889511,839.422913 
	C159.051636,840.566223 160.076889,842.196350 161.069016,842.484619 
	C163.061691,843.063538 165.277039,842.876099 167.354858,843.002136 
	C168.343765,845.953552 168.235519,847.753662 164.651962,847.891785 
	C162.221161,847.985352 158.486023,846.377258 158.663483,851.335632 
	C158.835205,856.134460 162.500565,854.226196 165.364304,854.700317 
z"/>
<path fill="#AEAAF5" opacity="1.000000" stroke="none" 
	d="
M262.067871,836.387573 
	C259.763367,836.772522 257.686981,836.560181 255.820023,837.088135 
	C254.630585,837.424561 253.751648,838.858704 252.733505,839.800659 
	C253.786942,840.763672 254.699570,842.217712 255.928131,842.570007 
	C257.602173,843.050049 259.517181,842.689697 261.249512,842.689697 
	C262.820465,846.601318 261.643524,848.109253 257.955109,847.847839 
	C257.128326,847.789307 256.045380,847.538757 255.511810,847.944275 
	C254.415634,848.777588 252.894028,849.985046 252.879776,851.056213 
	C252.864197,852.225952 254.115997,853.959961 255.250336,854.458679 
	C256.660034,855.078430 258.582886,854.421326 260.153748,854.824097 
	C261.137848,855.076416 261.882141,856.264221 262.734039,857.032288 
	C261.834869,857.937073 260.986847,858.904236 260.005920,859.709473 
	C259.703278,859.957886 259.037964,859.757874 258.539124,859.774719 
	C246.529022,860.180725 246.529282,860.181030 246.530930,848.294434 
	C246.531662,843.004822 246.531082,837.715210 246.531082,831.943237 
	C251.487503,831.943237 255.784073,831.910522 260.079865,831.954102 
	C263.194000,831.985718 262.980621,833.961182 262.067871,836.387573 
z"/>
<path fill="#AEAAF5" opacity="1.000000" stroke="none" 
	d="
M200.479980,832.169067 
	C204.583511,831.992737 208.250931,832.053894 211.908676,831.893799 
	C215.374146,831.742004 215.890976,833.409363 214.717163,836.976440 
	C212.839462,836.976440 210.701736,836.709839 208.681671,837.082031 
	C207.566864,837.287354 206.649536,838.564514 205.643188,839.358582 
	C206.557617,840.460938 207.267960,841.920288 208.432068,842.585876 
	C210.407440,843.715088 214.612350,840.856750 214.629196,845.266296 
	C214.646133,849.700623 210.460602,846.873779 208.464188,847.952026 
	C207.294144,848.583923 205.652328,850.126160 205.797714,850.995544 
	C206.020660,852.328613 207.390976,854.061768 208.656387,854.486206 
	C210.435791,855.083069 212.564987,854.637146 214.671295,854.637146 
	C216.038864,858.307129 215.286133,859.731934 211.438766,859.833252 
	C199.134293,860.157166 199.049194,860.260315 199.178024,848.047180 
	C199.233383,842.799011 199.738724,837.555542 200.479980,832.169067 
z"/>
<path fill="#AEAAF5" opacity="1.000000" stroke="none" 
	d="
M306.712708,859.773315 
	C296.123413,859.776245 296.123108,859.776245 296.125977,849.431763 
	C296.127228,844.947571 296.251892,840.458862 296.089081,835.980713 
	C295.982086,833.037109 296.932404,831.717041 300.049500,831.876160 
	C303.849548,832.070068 307.667053,831.922302 311.935181,831.922302 
	C312.045074,833.547546 312.137878,834.920105 312.253632,836.632080 
	C310.404846,836.760376 308.887054,836.602783 307.551544,837.023621 
	C305.804657,837.574158 303.002350,838.321716 302.759674,839.441101 
	C302.002045,842.935547 305.008057,842.655945 307.329620,842.722412 
	C307.827606,842.736633 308.458527,842.548523 308.799347,842.784363 
	C309.844635,843.507629 310.778656,844.391785 311.755981,845.213379 
	C310.824463,846.081177 310.027039,847.294739 308.924744,847.722290 
	C307.760376,848.173889 306.131989,847.501709 305.027069,848.013245 
	C303.961945,848.506348 302.577637,849.938477 302.646820,850.859497 
	C302.743042,852.141174 303.836151,854.078125 304.906219,854.402466 
	C307.037201,855.048157 309.443359,854.785767 311.680664,854.895813 
	C313.652435,860.171265 310.253845,859.817139 306.712708,859.773315 
z"/>
<path fill="#B0ACF6" opacity="1.000000" stroke="none" 
	d="
M190.698532,847.818970 
	C189.564240,851.191223 188.782349,854.298523 187.429504,857.133484 
	C186.870255,858.305420 185.142899,859.462585 183.845062,859.589966 
	C182.493149,859.722656 180.106323,858.949585 179.740768,857.980652 
	C176.592026,849.635132 173.798264,841.155640 170.891342,832.694946 
	C175.374207,830.914978 177.259048,832.415955 178.268204,836.270203 
	C179.566864,841.230225 181.293930,846.077942 183.271683,852.355408 
	C185.349686,846.047302 187.258713,841.066772 188.592575,835.936707 
	C189.600037,832.061951 191.643066,831.176758 195.793671,832.572876 
	C194.135574,837.531494 192.478180,842.487915 190.698532,847.818970 
z"/>
<path fill="#AEAAF5" opacity="1.000000" stroke="none" 
	d="
M136.676788,845.972168 
	C136.681015,847.793213 136.779510,849.130493 136.671524,850.450867 
	C136.400375,853.765625 138.019348,854.966553 141.134399,854.687012 
	C141.958389,854.612976 142.921310,854.418335 143.600479,854.741394 
	C145.088608,855.449341 146.435898,856.453369 147.840698,857.336609 
	C146.508606,858.148865 145.221756,859.556091 143.835953,859.661377 
	C139.725449,859.973816 135.575989,859.773193 131.030090,859.773193 
	C131.030090,850.455200 131.030090,841.567993 131.030090,832.202148 
	C132.593018,832.125793 134.157120,832.049377 136.677032,831.926270 
	C136.677032,836.691772 136.677032,841.086182 136.676788,845.972168 
z"/>
<path fill="#F8F8FD" opacity="1.000000" stroke="none" 
	d="
M482.059998,494.959900 
	C477.968414,488.763214 479.748138,483.025391 485.950958,481.499634 
	C489.885468,480.531830 493.732880,481.504395 495.367035,485.084015 
	C496.472260,487.505066 496.469238,491.362518 495.260010,493.695282 
	C493.370056,497.341156 489.419373,498.333344 485.320862,496.916595 
	C484.255890,496.548492 483.327667,495.784729 482.059998,494.959900 
z"/>
<path fill="#B0ACF6" opacity="1.000000" stroke="none" 
	d="
M100.967743,847.704102 
	C103.603767,853.779053 97.925514,856.682617 95.338043,861.257385 
	C90.594971,851.515198 85.851891,841.773010 81.108818,832.030823 
	C81.410866,831.791809 81.712906,831.552856 82.014946,831.313843 
	C87.117828,835.873840 92.220711,840.433838 97.658813,844.996155 
	C97.994041,844.998474 97.953102,844.967590 97.976151,845.267334 
	C98.342216,845.726929 98.685234,845.886780 99.012573,846.024780 
	C98.996895,846.002991 98.949570,845.977722 99.038933,846.341187 
	C99.761292,846.980286 100.394287,847.255859 101.016365,847.562744 
	C101.005440,847.594116 100.967743,847.704102 100.967743,847.704102 
z"/>
<path fill="#AEAAF5" opacity="1.000000" stroke="none" 
	d="
M101.350922,847.654297 
	C100.967743,847.704102 101.005440,847.594116 100.960396,847.167725 
	C100.260094,846.486755 99.604836,846.232239 98.949570,845.977722 
	C98.949570,845.977722 98.996895,846.002991 99.075371,845.682800 
	C98.753601,845.230957 98.353355,845.099243 97.953102,844.967590 
	C97.953102,844.967590 97.994041,844.998474 98.003616,845.022217 
	C99.444923,842.974365 100.630508,840.662720 102.364120,838.885681 
	C105.203445,835.975281 108.399117,833.412476 112.338737,831.327026 
	C109.677841,836.565491 107.068184,841.831726 104.276016,846.999207 
	C104.000198,847.509766 102.608078,847.417114 101.350922,847.654297 
z"/>
<path fill="#433FEE" opacity="1.000000" stroke="none" 
	d="
M1007.000000,772.002441 
	C1015.903870,772.002441 1024.307739,772.002441 1032.496826,772.002441 
	C995.270142,809.224060 958.348572,846.140625 921.357056,883.127136 
	C921.288513,882.524353 921.006165,881.194153 921.005249,879.863770 
	C920.981201,845.869507 921.059937,811.874878 920.901306,777.881409 
	C920.879456,773.202148 922.529602,771.899475 927.013977,771.926025 
	C953.508484,772.083008 980.004517,772.002808 1007.000000,772.002441 
z"/>
<path fill="#2823BC" opacity="1.000000" stroke="none" 
	d="
M994.424316,710.235901 
	C1047.624512,700.965515 1084.890625,664.165283 1094.733398,610.515747 
	C1094.974121,643.151978 1095.021729,676.096252 1095.035889,709.737122 
	C1095.002563,710.433716 1094.912354,710.899292 1094.912354,710.899292 
	C1062.838989,710.920715 1030.765747,710.948364 998.692383,710.941406 
	C997.386047,710.941101 996.079773,710.613892 994.424316,710.235901 
z"/>
<path fill="#4440EE" opacity="1.000000" stroke="none" 
	d="
M1094.936890,711.377075 
	C1094.912354,710.899292 1095.002563,710.433716 1095.060547,710.203491 
	C1095.118408,709.973328 1095.570679,709.993042 1095.797119,710.002686 
	C1098.284058,710.339905 1100.543823,710.946960 1102.805176,710.952515 
	C1129.543091,711.018250 1156.281006,710.977295 1183.019043,711.025269 
	C1185.136230,711.029114 1187.252808,711.486023 1189.413208,712.193237 
	C1183.600342,714.479492 1177.788940,716.467773 1171.879639,718.102295 
	C1146.303711,725.177002 1120.699097,732.148132 1095.104980,739.156921 
	C1095.057129,730.056213 1095.009277,720.955505 1094.936890,711.377075 
z"/>
<path fill="#8686FA" opacity="1.000000" stroke="none" 
	d="
M1095.105225,739.419983 
	C1120.699097,732.148132 1146.303711,725.177002 1171.879639,718.102295 
	C1177.788940,716.467773 1183.600342,714.479492 1189.744141,712.452271 
	C1197.246948,711.620728 1204.462524,710.990906 1212.100830,710.353271 
	C1209.925293,711.616394 1207.432007,713.212524 1204.707642,714.093079 
	C1198.228638,716.187317 1191.699219,718.186096 1185.085327,719.791626 
	C1161.035034,725.629517 1136.945679,731.306396 1112.861816,737.005249 
	C1107.232544,738.337280 1101.567627,739.517944 1095.543701,740.750122 
	C1095.147461,740.382385 1095.126465,740.032715 1095.105225,739.419983 
z"/>
<path fill="#6767F9" opacity="1.000000" stroke="none" 
	d="
M971.150146,237.802383 
	C971.107605,208.590698 980.652954,182.739807 998.610962,160.048553 
	C1017.445374,136.249832 1042.178223,121.704422 1071.813232,115.673431 
	C1079.433838,114.122536 1087.321655,113.883720 1095.525635,113.041916 
	C1095.964478,113.041679 1095.932861,113.065361 1095.946045,113.542709 
	C1095.926147,155.252899 1095.892944,196.485748 1095.650146,237.777924 
	C1095.440430,237.837265 1095.023560,237.964264 1094.554199,237.923950 
	C1053.066528,237.900330 1012.048462,237.917023 971.030334,237.933716 
	C971.030334,237.933731 971.139526,237.865799 971.150146,237.802383 
z"/>
<path fill="#898AFB" opacity="1.000000" stroke="none" 
	d="
M1031.707520,26.185581 
	C1029.811523,25.284203 1028.239624,24.540129 1026.120361,23.536955 
	C1031.253906,21.708424 1038.742310,25.889311 1040.827148,31.754351 
	C1037.458740,29.681931 1034.745239,28.012407 1031.707520,26.185581 
z"/>
<path fill="#8584F9" opacity="1.000000" stroke="none" 
	d="
M1047.937256,73.388618 
	C1049.798950,77.702972 1051.475586,81.734314 1053.457886,86.500618 
	C1049.632446,84.715546 1044.778076,75.574249 1045.728149,73.132256 
	C1045.819824,72.896568 1047.050415,73.103920 1047.937256,73.388618 
z"/>
<path fill="#8584F9" opacity="1.000000" stroke="none" 
	d="
M979.261108,125.457085 
	C978.587097,125.754646 977.727051,125.783096 977.725708,125.760674 
	C977.444519,121.015793 977.223816,116.267334 977.001160,111.518997 
	C977.826172,111.498161 978.651184,111.477325 979.476196,111.456497 
	C979.476196,116.025734 979.476196,120.594971 979.261108,125.457085 
z"/>
<path fill="#8686FA" opacity="1.000000" stroke="none" 
	d="
M1078.934814,15.868670 
	C1079.382568,14.183901 1079.771729,12.878683 1080.381348,10.834076 
	C1082.705322,15.967028 1081.332520,21.380535 1076.542969,25.406492 
	C1077.493896,21.674330 1078.185059,18.961273 1078.934814,15.868670 
z"/>
<path fill="#8A8AFB" opacity="1.000000" stroke="none" 
	d="
M921.703308,135.378143 
	C919.825317,138.373581 914.581909,138.584488 909.782776,135.170975 
	C914.435852,135.170975 917.916321,135.170975 921.703308,135.378143 
z"/>
<path fill="#8584F9" opacity="1.000000" stroke="none" 
	d="
M886.513977,182.924713 
	C889.418518,184.373596 892.004944,185.711044 895.062866,187.292267 
	C891.875183,188.525986 885.070129,186.215195 884.399719,184.119904 
	C884.328918,183.898560 885.565796,183.258865 886.513977,182.924713 
z"/>
<path fill="#8584F9" opacity="1.000000" stroke="none" 
	d="
M925.526733,219.387787 
	C927.851196,218.861160 929.824036,218.460175 931.796814,218.059174 
	C931.970825,218.678223 932.144836,219.297256 932.318848,219.916290 
	C928.947205,220.993973 925.575562,222.071655 922.203918,223.149338 
	C921.958008,222.591095 921.712097,222.032867 921.466187,221.474640 
	C922.702454,220.820892 923.938782,220.167160 925.526733,219.387787 
z"/>
<path fill="#8686FA" opacity="1.000000" stroke="none" 
	d="
M975.228027,56.152222 
	C975.159363,53.312771 975.159363,50.860947 975.159363,48.409122 
	C975.855042,48.402283 976.550720,48.395439 977.246399,48.388596 
	C977.510437,51.562977 977.774475,54.737362 978.038452,57.911743 
	C977.403687,58.339325 976.768921,58.766907 976.134155,59.194489 
	C975.854980,58.309608 975.575867,57.424725 975.228027,56.152222 
z"/>
<path fill="#8584F9" opacity="1.000000" stroke="none" 
	d="
M939.951111,173.196533 
	C940.198853,175.529861 940.416748,177.481033 940.634705,179.432190 
	C940.015686,179.528732 939.396667,179.625259 938.777588,179.721786 
	C938.159790,176.806076 937.541992,173.890366 936.924194,170.974655 
	C937.486877,170.784470 938.049500,170.594299 938.612183,170.404114 
	C939.048584,171.207535 939.484985,172.010956 939.951111,173.196533 
z"/>
<path fill="#524DEF" opacity="1.000000" stroke="none" 
	d="
M1095.859741,237.718582 
	C1095.892944,196.485748 1095.926147,155.252899 1095.941284,113.562149 
	C1124.465576,113.802673 1150.363037,122.343590 1172.633301,140.323273 
	C1199.653076,162.137360 1215.488037,190.365967 1219.049805,225.152786 
	C1219.455811,229.117783 1219.672974,233.102112 1219.972900,237.532440 
	C1219.968262,237.987396 1220.000488,237.994080 1219.529053,237.979156 
	C1190.291992,237.963531 1161.526367,237.986374 1132.760864,237.951080 
	C1120.460327,237.935989 1108.160156,237.799774 1095.859741,237.718582 
z"/>
<path fill="#3D2EDF" opacity="1.000000" stroke="none" 
	d="
M1095.650146,237.777924 
	C1108.160156,237.799774 1120.460327,237.935989 1132.760864,237.951080 
	C1161.526367,237.986374 1190.291992,237.963531 1219.525513,237.965485 
	C1219.345337,268.639923 1209.530762,295.784637 1189.424438,319.217255 
	C1170.111816,341.724792 1145.575317,354.918976 1116.844971,360.612213 
	C1110.072144,361.954346 1102.966919,361.620300 1095.559814,362.085571 
	C1095.104858,362.113800 1095.052856,362.056702 1095.031738,361.559814 
	C1095.014893,320.030060 1095.019287,278.997162 1095.023560,237.964264 
	C1095.023560,237.964264 1095.440430,237.837265 1095.650146,237.777924 
z"/>
<path fill="#2823BC" opacity="1.000000" stroke="none" 
	d="
M988.606995,474.919495 
	C990.452759,474.615784 992.719177,474.063934 994.986572,474.060089 
	C1028.005493,474.003937 1061.024536,474.021057 1094.509521,474.024780 
	C1095.010498,474.195831 1095.045410,474.362762 1095.136353,474.779663 
	C1095.130127,502.331421 1095.070190,529.633240 1095.003418,556.935120 
	C1094.989624,562.595520 1094.951294,568.255981 1094.927734,574.364868 
	C1092.218994,561.750854 1088.630737,548.968689 1082.102905,537.228088 
	C1061.727295,500.581879 1030.785278,479.660248 988.606995,474.919495 
z"/>
<path fill="#6767F9" opacity="1.000000" stroke="none" 
	d="
M1255.668701,551.056763 
	C1267.476685,563.822083 1273.440674,578.604614 1272.995239,596.029297 
	C1272.251587,625.122742 1245.976074,651.277344 1216.975708,652.178345 
	C1199.884155,652.709412 1185.309326,647.402161 1172.404419,635.964966 
	C1172.087280,635.411438 1172.025146,635.084656 1172.205078,634.279907 
	C1199.564209,606.738586 1226.683960,579.676025 1253.792725,552.602661 
	C1254.258545,552.137573 1254.594360,551.542358 1254.990723,551.007874 
	C1254.990723,551.007874 1255.442871,551.038391 1255.668701,551.056763 
z"/>
<path fill="#8584F9" opacity="1.000000" stroke="none" 
	d="
M1254.819946,550.720093 
	C1254.594360,551.542358 1254.258545,552.137573 1253.792725,552.602661 
	C1226.683960,579.676025 1199.564209,606.738586 1172.172119,634.030884 
	C1167.958740,629.028015 1162.979248,624.285950 1160.248291,618.485168 
	C1143.088867,582.038208 1164.938721,540.666138 1204.760986,534.461609 
	C1223.711304,531.509033 1240.671631,536.824341 1254.819946,550.720093 
z"/>
<path fill="#8584F9" opacity="1.000000" stroke="none" 
	d="
M1003.754761,536.105713 
	C1047.573364,549.605286 1059.954590,602.510681 1029.675781,634.559692 
	C1003.669373,662.086548 955.248047,656.472961 936.318787,623.617249 
	C915.075012,586.744141 935.756836,541.654724 977.694641,534.662781 
	C985.948425,533.286682 994.793945,535.459839 1003.754761,536.105713 
z"/>
<path fill="#2823BB" opacity="1.000000" stroke="none" 
	d="
M1094.554199,237.923950 
	C1095.019287,278.997162 1095.014893,320.030060 1095.005371,361.531616 
	C1028.945557,362.755005 972.291809,308.649170 971.028137,238.387787 
	C1012.048462,237.917023 1053.066528,237.900330 1094.554199,237.923950 
z"/>
<path fill="#3D30DD" opacity="1.000000" stroke="none" 
	d="
M589.428589,540.029175 
	C589.698120,534.278259 589.468445,528.754150 590.747070,523.604553 
	C591.925232,518.859741 596.081787,516.616699 601.147034,516.814209 
	C606.035400,517.004822 609.618408,519.669189 610.795776,524.099670 
	C611.956970,528.469299 612.361450,533.246460 612.016052,537.762024 
	C611.485779,544.696167 607.662842,548.580139 602.211365,549.120483 
	C595.778076,549.758118 592.337952,547.386963 589.428589,540.029175 
z"/>
<path fill="#3D30DD" opacity="1.000000" stroke="none" 
	d="
M564.941040,389.656799 
	C574.408752,392.795349 574.824951,412.015869 569.064270,418.044586 
	C563.961060,423.385223 554.612915,422.435272 551.271973,415.741119 
	C547.640869,408.465576 547.747131,400.908997 551.950134,393.828766 
	C554.802124,389.024384 559.413818,388.168823 564.941040,389.656799 
z"/>
<path fill="#3F34DD" opacity="1.000000" stroke="none" 
	d="
M439.798706,418.440430 
	C436.825592,423.215973 432.633209,424.612000 427.669891,424.204254 
	C424.265167,423.924561 421.525146,422.626221 420.933167,418.842163 
	C420.311951,414.871521 422.438507,412.335022 425.951813,411.394104 
	C430.716522,410.118042 435.636200,409.420532 441.318024,408.313416 
	C440.846039,411.743774 440.409576,414.915863 439.798706,418.440430 
z"/>
<path fill="#453ADE" opacity="1.000000" stroke="none" 
	d="
M219.183624,520.359070 
	C223.279083,516.002014 227.951324,514.984192 233.106781,516.815430 
	C237.601395,518.411865 239.908737,521.833557 240.229904,527.104126 
	C232.408691,527.104126 224.758560,527.104126 216.146591,527.104126 
	C217.198547,524.670532 218.067902,522.659424 219.183624,520.359070 
z"/>
<path fill="#453ADE" opacity="1.000000" stroke="none" 
	d="
M615.107300,398.275879 
	C617.393860,390.678314 622.569946,387.157532 629.170837,388.305054 
	C635.049988,389.327118 638.255981,393.191895 638.239929,400.286133 
	C630.496643,399.750214 622.798889,399.217468 615.107300,398.275879 
z"/>
<path fill="#3D30DD" opacity="1.000000" stroke="none" 
	d="
M124.241554,416.431824 
	C121.462440,409.288910 121.301132,402.476807 124.014305,395.693909 
	C125.857246,391.086578 129.226349,388.540558 134.321411,388.548950 
	C139.254257,388.557037 143.105133,391.009705 144.008514,395.564423 
	C145.137070,401.254395 145.469391,407.270386 145.012405,413.056152 
	C144.610748,418.141418 141.311462,422.000916 135.875900,422.890839 
	C130.663940,423.744171 126.939209,421.246246 124.241554,416.431824 
z"/>
<path fill="#3F34DD" opacity="1.000000" stroke="none" 
	d="
M233.835388,841.699463 
	C231.901413,842.908325 230.099319,843.732666 227.491074,844.925781 
	C227.491074,841.739502 227.491074,839.712402 227.491074,837.354797 
	C230.748062,837.006226 233.975418,836.301147 233.835388,841.699463 
z"/>
<path fill="#392CDC" opacity="1.000000" stroke="none" 
	d="
M99.038940,846.341187 
	C99.604836,846.232239 100.260094,846.486755 100.971321,847.136353 
	C100.394287,847.255859 99.761292,846.980286 99.038940,846.341187 
z"/>
<path fill="#392CDC" opacity="1.000000" stroke="none" 
	d="
M97.976151,845.267334 
	C98.353355,845.099243 98.753601,845.230957 99.091049,845.704590 
	C98.685234,845.886780 98.342216,845.726929 97.976151,845.267334 
z"/>
</svg>